<svg width="38" height="22" viewBox="0 0 38 22" fill="none" xmlns="http://www.w3.org/2000/svg">
<path d="M34 19.5V22H4V19.5H34ZM35.5 18V4C35.5 3.17157 34.8284 2.5 34 2.5H4C3.17157 2.5 2.5 3.17157 2.5 4V18C2.5 18.8284 3.17157 19.5 4 19.5V22C1.85996 22 0.112115 20.3194 0.00488281 18.2061L0 18V4C6.44266e-08 1.79086 1.79086 1.61064e-08 4 0H34L34.2061 0.00488281C36.3194 0.112115 38 1.85996 38 4V18L37.9951 18.2061C37.8913 20.2512 36.2512 21.8913 34.2061 21.9951L34 22V19.5C34.8284 19.5 35.5 18.8284 35.5 18ZM31.834 4.94238C32.4182 4.57457 33.1898 4.74984 33.5576 5.33398C33.9254 5.91816 33.7502 6.68977 33.166 7.05762L21.7969 14.2158C20.0875 15.292 17.9125 15.292 16.2031 14.2158L4.83398 7.05762C4.24984 6.68977 4.07457 5.91816 4.44238 5.33398C4.81023 4.74984 5.58184 4.57457 6.16602 4.94238L17.5352 12.1006C18.4304 12.6641 19.5696 12.6641 20.4648 12.1006L31.834 4.94238Z" fill="white"/>
</svg>
