<svg width="260" height="160" viewBox="0 0 260 160" fill="none" xmlns="http://www.w3.org/2000/svg">
<g clip-path="url(#clip0_3997_1610)">
<path d="M83.2662 31.1147C83.2992 30.7766 83.4764 29.3462 84.7172 28.2332C85.8096 27.2562 87.0422 27.1325 87.4173 27.1119L96.0947 27.1614C96.4781 27.1449 97.789 27.1325 99.0133 28.0559C99.9862 28.7897 100.386 29.7213 100.53 30.1129C103.082 37.2156 105.63 44.3183 108.181 51.421H109.166C111.632 44.4008 114.097 37.3764 116.562 30.3562C116.657 30.0016 117.011 28.8268 118.17 27.9611C119.212 27.182 120.297 27.1037 120.684 27.0913C123.467 27.0996 126.253 27.1078 129.036 27.116C129.329 27.0996 131.357 27.0295 132.857 28.633C134.106 29.9687 134.152 31.564 134.152 31.9391V79.3536C134.127 79.77 134.003 80.8665 133.175 81.8558C131.88 83.4017 129.947 83.3934 129.679 83.3852C128.83 83.3811 127.981 83.3728 127.127 83.3687C126.863 83.3605 125.062 83.2615 123.867 81.728C122.951 80.5532 122.96 79.2629 122.976 78.9002V43.7206C122.935 43.4939 122.799 43.3042 122.609 43.2424C122.333 43.1517 121.966 43.3372 121.843 43.7206L113.701 67.2836C112.839 69.6827 110.502 71.1585 108.161 70.8864C106.236 70.6638 104.566 69.2911 103.873 67.3701C101.103 59.4347 98.3373 51.4993 95.5671 43.5681C95.4269 43.2259 95.0806 43.0569 94.8045 43.1394C94.5241 43.2259 94.4293 43.5392 94.4252 43.5681V79.4319H82.8828C83.0106 63.3262 83.1343 47.2204 83.2621 31.1105L83.2662 31.1147Z" fill="black"/>
<path d="M0.109443 91.6575C0.0352417 91.3277 -0.253318 89.9137 0.571138 88.4668C1.29666 87.193 2.42617 86.686 2.77656 86.5458C5.52612 85.643 8.27156 84.7403 11.0211 83.8375C11.3798 83.7014 12.6206 83.2727 14.0716 83.7592C15.23 84.1467 15.9019 84.901 16.1657 85.2308C20.8404 91.1545 25.5151 97.0824 30.1856 103.006C30.4948 102.903 30.8081 102.796 31.1172 102.693C31.2244 95.2521 31.3316 87.8114 31.4388 80.3706C31.4141 80.0038 31.377 78.7794 32.2014 77.5881C32.9434 76.5163 33.9451 76.1 34.3079 75.968C36.9503 75.09 39.5927 74.2161 42.235 73.338C42.5071 73.2309 44.4075 72.5177 46.3408 73.5648C47.9485 74.4346 48.4968 75.9351 48.6163 76.2896C53.6373 91.2741 58.6541 106.263 63.675 121.247C63.7822 121.651 64.0131 122.727 63.5431 123.931C62.8052 125.811 60.9708 126.412 60.7152 126.491C59.9073 126.755 59.0993 127.018 58.2913 127.282C58.0358 127.356 56.2961 127.835 54.6802 126.763C53.4394 125.938 53.0395 124.714 52.9365 124.364C49.2099 113.242 45.4875 102.124 41.761 91.002C41.6497 90.8 41.4601 90.664 41.2622 90.6681C40.9695 90.6681 40.6809 90.9649 40.6892 91.3648C40.6109 99.6753 40.5325 107.986 40.4542 116.292C40.3965 118.84 38.6487 120.979 36.3443 121.47C34.4481 121.874 32.4281 121.099 31.1626 119.499C26.018 112.854 20.8734 106.209 15.7288 99.564C15.4856 99.2837 15.1063 99.2301 14.8713 99.3991C14.6322 99.5722 14.6446 99.8979 14.6446 99.9267C18.4412 111.263 22.2379 122.595 26.0345 133.931C26.1169 134.187 26.5044 135.469 25.8284 136.85C25.1399 138.256 23.8497 138.73 23.6023 138.816C22.6789 139.146 21.7555 139.48 20.8322 139.81C20.49 139.913 19.1709 140.263 17.7075 139.62C16.1822 138.948 15.5515 137.662 15.4114 137.349C10.3162 122.117 5.21283 106.889 0.109443 91.6575Z" fill="black"/>
<path d="M155.694 27.2061H153.241C150.208 27.2061 147.75 29.6644 147.75 32.6969V77.906C147.75 80.9385 150.208 83.3969 153.241 83.3969H155.694C158.726 83.3969 161.185 80.9385 161.185 77.906V32.6969C161.185 29.6644 158.726 27.2061 155.694 27.2061Z" fill="black"/>
<path d="M63.1928 83.2222L61.8763 84.3082C59.7355 86.0742 59.4317 89.2414 61.1977 91.3822L82.4194 117.108C84.1854 119.249 87.3526 119.553 89.4934 117.787L90.8099 116.701C92.9508 114.935 93.2546 111.767 91.4886 109.627L70.2669 83.9008C68.5008 81.76 65.3337 81.4561 63.1928 83.2222Z" fill="black"/>
<path d="M89.3958 73.8418H87.9118C85.1365 73.8418 82.8867 76.0916 82.8867 78.8669V114.978C82.8867 117.753 85.1365 120.003 87.9118 120.003H89.3958C92.1711 120.003 94.4209 117.753 94.4209 114.978V78.8669C94.4209 76.0916 92.1711 73.8418 89.3958 73.8418Z" fill="black"/>
<path d="M173.153 27.922L172.37 28.4413C169.842 30.1168 169.151 33.5241 170.827 36.0517L201.04 81.6293C202.715 84.1569 206.123 84.8476 208.65 83.1721L209.434 82.6528C211.961 80.9773 212.652 77.57 210.976 75.0423L180.763 29.4648C179.088 26.9372 175.681 26.2464 173.153 27.922Z" fill="black"/>
<path d="M172.363 82.6466L173.146 83.1659C175.674 84.8414 179.081 84.1507 180.756 81.6231L210.969 36.0455C212.645 33.5179 211.954 30.1106 209.427 28.4351L208.643 27.9158C206.116 26.2402 202.708 26.931 201.033 29.4586L170.82 75.0361C169.144 77.5637 169.835 80.9711 172.363 82.6466Z" fill="black"/>
<path d="M219.356 27.9264L218.573 28.4457C216.045 30.1212 215.354 33.5285 217.03 36.0561L247.243 81.6337C248.918 84.1613 252.326 84.852 254.853 83.1765L255.637 82.6572C258.164 80.9817 258.855 77.5744 257.179 75.0467L226.967 29.4692C225.291 26.9416 221.884 26.2508 219.356 27.9264Z" fill="black"/>
<path d="M218.562 82.651L219.345 83.1703C221.873 84.8458 225.28 84.1551 226.956 81.6275L257.169 36.0499C258.844 33.5223 258.153 30.115 255.626 28.4395L254.842 27.9202C252.315 26.2446 248.907 26.9354 247.232 29.463L217.019 75.0405C215.343 77.5681 216.034 80.9755 218.562 82.651Z" fill="black"/>
<path d="M129.645 92.5977C119.014 92.5977 110.398 101.213 110.398 111.845C110.398 122.476 119.014 131.092 129.645 131.092C140.277 131.092 148.892 122.476 148.892 111.845C148.892 101.213 140.277 92.5977 129.645 92.5977ZM129.724 116.115C127.411 116.115 125.535 114.24 125.535 111.927C125.535 109.614 127.411 107.735 129.724 107.735C132.036 107.735 133.916 109.61 133.916 111.927C133.916 114.244 132.04 116.115 129.724 116.115ZM143.249 110.315C143.051 110.373 142.853 110.402 142.659 110.402C141.769 110.402 140.953 109.825 140.685 108.926C140.359 107.829 138.982 104.078 135.041 101.972C130.54 99.5726 126.096 101.127 125.247 101.461C124.192 101.881 122.992 101.366 122.572 100.306C122.151 99.2469 122.67 98.0514 123.726 97.631C125.329 96.992 131.03 95.1576 136.979 98.3359C142.185 101.114 144.069 105.847 144.634 107.751C144.96 108.844 144.341 109.99 143.249 110.315Z" fill="black"/>
<path d="M182.786 92.5977C172.155 92.5977 163.539 101.213 163.539 111.845C163.539 122.476 172.155 131.092 182.786 131.092C193.417 131.092 202.033 122.476 202.033 111.845C202.033 101.213 193.417 92.5977 182.786 92.5977ZM182.864 116.115C180.552 116.115 178.676 114.24 178.676 111.927C178.676 109.614 180.552 107.735 182.864 107.735C185.177 107.735 187.057 109.61 187.057 111.927C187.057 114.244 185.181 116.115 182.864 116.115ZM196.39 110.315C196.192 110.373 195.994 110.402 195.8 110.402C194.91 110.402 194.093 109.825 193.825 108.926C193.5 107.829 192.123 104.078 188.182 101.972C183.681 99.5726 179.237 101.127 178.388 101.461C177.332 101.881 176.133 101.366 175.712 100.306C175.292 99.2469 175.811 98.0514 176.866 97.631C178.47 96.992 184.171 95.1576 190.12 98.3359C195.326 101.114 197.21 105.847 197.775 107.751C198.1 108.844 197.482 109.99 196.39 110.315Z" fill="black"/>
<path d="M235.931 92.5977C225.299 92.5977 216.684 101.213 216.684 111.845C216.684 122.476 225.299 131.092 235.931 131.092C246.562 131.092 255.177 122.476 255.177 111.845C255.177 101.213 246.562 92.5977 235.931 92.5977ZM236.009 116.115C233.696 116.115 231.821 114.24 231.821 111.927C231.821 109.614 233.696 107.735 236.009 107.735C238.321 107.735 240.201 109.61 240.201 111.927C240.201 114.244 238.326 116.115 236.009 116.115ZM249.534 110.315C249.336 110.373 249.138 110.402 248.945 110.402C248.054 110.402 247.238 109.825 246.97 108.926C246.644 107.829 245.267 104.078 241.327 101.972C236.825 99.5726 232.381 101.127 231.532 101.461C230.477 101.881 229.277 101.366 228.857 100.306C228.436 99.2469 228.956 98.0514 230.011 97.631C231.614 96.992 237.316 95.1576 243.264 98.3359C248.471 101.114 250.354 105.847 250.919 107.751C251.245 108.844 250.626 109.99 249.534 110.315Z" fill="black"/>
<path d="M82.4645 116.8C82.6005 119.718 82.2543 122.287 81.772 124.389C81.7513 124.636 81.6771 125.209 81.2732 125.782C80.8692 126.359 80.3539 126.627 80.1272 126.726L77.5507 127.625C77.2251 127.765 76.7428 128.025 76.3223 128.507C75.3206 129.657 75.4937 131.116 75.5308 131.389C75.5844 131.834 75.638 132.283 75.6916 132.728C75.7864 133.108 76.1038 134.146 77.0932 134.979C77.8846 135.651 78.7173 135.857 79.1172 135.927C80.6301 136.109 83.0622 136.166 85.6139 135.029C85.6758 135 86.4013 134.674 87.0938 134.229C92.9433 130.473 94.3779 119.71 94.4315 115.637C94.4315 115.444 94.4315 115.237 94.415 114.969C94.2089 112.187 92.2797 108.23 89.1302 107.875C85.5645 107.475 82.7737 111.701 82.4109 114.739C82.3285 115.415 82.4068 115.724 82.4563 116.796L82.4645 116.8Z" fill="black"/>
<path d="M88.6612 84.3492C91.8417 84.3492 94.42 81.7709 94.42 78.5904C94.42 75.4099 91.8417 72.8315 88.6612 72.8315C85.4807 72.8315 82.9023 75.4099 82.9023 78.5904C82.9023 81.7709 85.4807 84.3492 88.6612 84.3492Z" fill="black"/>
</g>
<defs>
<clipPath id="clip0_3997_1610">
<rect width="260" height="160" fill="white"/>
</clipPath>
</defs>
</svg>
