<svg width="110" height="160" viewBox="0 0 110 160" fill="none" xmlns="http://www.w3.org/2000/svg">
<path d="M52.1271 48.7617C52.8393 48.5063 54.6066 47.6397 55.1893 47.614C56.1205 48.0293 57.0558 48.4393 57.9925 48.8437C58.3272 50.5225 58.8768 50.9242 60.0147 52.1776L60.2282 99.0033L60.2681 112.064C60.2791 113.59 60.5023 118.319 60.2323 119.639C58.6468 127.396 57.2927 135.667 55.3973 143.323C55.3284 143.939 55.2361 144.398 55.1135 145L54.8063 143.753L51.4561 127.635C50.742 124.163 49.7957 120.619 49.8712 117.078C49.9056 115.463 49.8887 113.831 49.8945 112.213L49.9483 97.7793L50.1516 52.1679C51.2052 50.8325 51.7028 50.3948 52.1271 48.7617Z" fill="black"/>
<path d="M55.1894 47.614C56.1206 48.0293 57.0559 48.4393 57.9926 48.8437C58.3273 50.5225 58.877 50.9242 60.0148 52.1776L60.2283 99.0033L60.2682 112.064C60.2792 113.59 60.5024 118.319 60.2324 119.639C58.6469 127.396 57.2928 135.667 55.3974 143.323C55.1315 142.622 55.1577 141.876 55.1233 141.115L55.1522 119.355C55.0337 95.441 55.0461 71.5272 55.1894 47.614Z" fill="black"/>
<path d="M55.1232 141.115C55.1577 141.876 55.1315 142.622 55.3973 143.323C55.3285 143.939 55.2362 144.398 55.1136 145L54.8064 143.754C54.918 142.875 55.024 141.995 55.1232 141.115Z" fill="black"/>
<path d="M109.954 80.6847L110 80.7402C110.065 81.3527 93.5636 118.067 91.9354 121.711C89.8237 121.208 87.0356 120.787 84.8688 120.391C79.2376 119.365 73.5761 118.423 67.9381 117.433C67.3223 117.325 67.3168 117.401 67.073 117.046L67.1915 116.4C69.0235 116.156 71.1435 116.138 73.0114 115.985C77.907 115.585 83.1001 115.502 87.9668 115.015C90.2342 110.041 93.306 103.828 95.2951 98.8551C93.5429 98.1182 91.2687 97.3603 89.4669 96.7106C95.8557 91.366 103.333 85.9046 109.954 80.6847Z" fill="black"/>
<path d="M0 80.6454C1.31647 81.4913 3.02594 82.9246 4.28663 83.9358C9.62979 88.222 15.3552 92.3107 20.5777 96.724L14.6948 98.8043C16.7357 103.785 19.8191 110.001 22.1132 114.998C24.0666 115.247 27.058 115.357 29.0865 115.491L42.8401 116.386C43.0485 116.728 43.0951 116.722 43.0723 117.107C42.6534 117.406 20.5741 121.162 18.1707 121.703L5.95216 94.2569C4.01072 89.8684 1.78262 85.059 0 80.6454Z" fill="black"/>
<path d="M42.6166 72.6111C42.8525 73.5033 41.6846 85.7489 41.5143 87.5303C40.7571 87.7015 40.0465 87.9169 39.3026 88.1339C38.5082 89.948 37.6017 92.6139 36.8843 94.5255C38.672 100.075 40.1311 105.554 41.8281 111.075C40.9029 110.019 39.4819 107.938 38.6129 106.737L34.6864 101.311C32.7101 98.5463 32.3451 97.4538 29.3318 95.7233C32.5671 89.6858 36.1182 83.7603 39.5171 77.8115C40.5089 76.0758 41.5459 74.2972 42.6166 72.6111Z" fill="black"/>
<path d="M67.4902 72.7168C67.8828 73.0725 69.7245 76.3177 70.1337 77.0169C73.7386 83.2049 77.2746 89.4329 80.7404 95.6999C77.7953 97.5063 77.4964 98.3976 75.5293 101.137C74.2248 102.952 72.9107 104.759 71.5869 106.559L68.2796 111.123C69.7645 105.752 71.8693 99.6613 73.1752 94.4475C72.5911 92.5015 71.5607 90.0291 70.7632 88.1453L68.5123 87.5035C68.2382 82.6036 67.8071 77.6278 67.4902 72.7168Z" fill="black"/>
<path d="M54.8822 16.1772L55.0985 16C55.5902 16.7038 56.3424 18.198 56.7708 18.9935C57.6868 20.6929 58.6648 22.4421 59.534 24.1618C59.191 24.8786 57.9003 27.4301 57.8741 28.0515C57.6634 33.1178 58.173 38.651 58.1469 43.6868C57.6964 43.5311 57.2184 43.3552 56.7694 43.2111C55.1219 43.3521 53.8188 43.1115 52.2154 43.3416L52.0818 43.4173C51.6295 42.886 52.5694 30.0011 52.2801 28.2132C52.0501 26.7977 51.1744 25.3904 50.573 24.143C51.9867 21.4752 53.4221 18.8199 54.8822 16.1772Z" fill="black"/>
<path d="M54.8821 16.1772L55.0983 16C55.5901 16.7038 56.3422 18.198 56.7706 18.9935C57.6867 20.6929 58.6647 22.4421 59.5339 24.1618C59.1909 24.8786 57.9002 27.4301 57.874 28.0515C57.6632 33.1178 58.1729 38.651 58.1467 43.6868C57.6963 43.5311 57.2183 43.3552 56.7692 43.2111C55.9428 42.4386 55.4868 42.045 55.0625 40.9581C55.3435 39.8006 55.141 17.4762 54.8821 16.1772Z" fill="black"/>
<path d="M52.2153 43.3415C52.9316 42.861 54.7816 41.1063 55.0626 40.958C55.4869 42.0449 55.9428 42.4385 56.7693 43.2111C55.1218 43.3521 53.8187 43.1115 52.2153 43.3415Z" fill="black"/>
<path d="M38.5233 43.0935C42.0557 44.2625 43.1939 44.0225 46.9086 44.0215L56.071 44.0138L64.1293 44.0142C67.518 44.0171 68.3665 44.2443 71.6256 43.0741C72.0788 44.0355 74.4068 48.7771 74.2911 49.5042C74.2305 49.4827 73.9922 49.405 73.9481 49.374C69.288 47.2595 69.2205 47.4514 64.1087 47.3827C60.7076 47.3466 57.3052 47.3345 53.9042 47.3464C50.9771 47.3392 48.05 47.3533 45.1229 47.3887C40.6006 47.4499 40.7227 47.3825 36.5216 49.243C36.0925 49.4481 36.067 49.5548 35.6843 49.4918C36.2946 47.82 37.735 44.7804 38.5233 43.0935Z" fill="black"/>
<path d="M40.1615 45.6504L70.1902 45.6687C70.89 46.3132 73.583 48.7181 73.948 49.374C69.2879 47.2596 69.2205 47.4515 64.1086 47.3827C60.7075 47.3466 57.3051 47.3346 53.9041 47.3465C50.9771 47.3393 48.0499 47.3534 45.1228 47.3888C40.6005 47.4499 40.7226 47.3826 36.5215 49.243C37.0748 48.1526 39.1451 46.4696 40.1615 45.6504Z" fill="black"/>
<path d="M19.1589 123.997C21.9522 124.073 25.568 124.416 28.4146 124.6L45.245 125.651L47.0868 131.96C38.0758 129.871 29.0533 127.832 20.0197 125.844C19.6989 125.217 19.4417 124.639 19.1589 123.997Z" fill="black"/>
<path d="M90.2081 124.042L90.6213 124.022L90.788 124.193C90.7632 124.709 90.3816 125.351 90.1419 125.84C81.3246 127.76 72.5224 129.754 63.7381 131.822C63.5687 131.847 63.3813 131.836 63.2064 131.836C63.0755 131.393 64.6597 126.533 64.9049 125.635C73.1946 125.335 81.9169 124.64 90.2081 124.042Z" fill="black"/>
</svg>
