<svg width="243" height="160" viewBox="0 0 243 160" fill="none" xmlns="http://www.w3.org/2000/svg">
<path d="M54.9715 153.635C55.7008 153.766 56.2443 154.056 56.602 154.506C56.9597 154.952 57.1385 155.524 57.1385 156.221C57.1385 157.168 56.8087 157.877 56.1491 158.346C55.4941 158.81 54.4396 159.043 52.9855 159.043C52.219 159.043 51.4827 159.001 50.7766 158.917V148.779C51.5338 148.63 52.3445 148.556 53.2085 148.556C54.0586 148.556 54.7508 148.653 55.285 148.848C55.8192 149.039 56.2118 149.331 56.4626 149.726C56.7181 150.117 56.8459 150.618 56.8459 151.231C56.8459 151.831 56.6972 152.344 56.3999 152.771C56.1026 153.199 55.6265 153.487 54.9715 153.635ZM53.2155 149.106C52.5326 149.106 51.9241 149.153 51.3898 149.246V153.385H53.3758C54.0726 153.385 54.63 153.303 55.0481 153.141C55.4662 152.978 55.7658 152.741 55.947 152.43C56.1328 152.114 56.2257 151.717 56.2257 151.238C56.2257 150.727 56.1258 150.316 55.9261 150.005C55.7263 149.694 55.4058 149.466 54.9645 149.322C54.5278 149.178 53.9448 149.106 53.2155 149.106ZM53.0413 158.485C53.896 158.485 54.5766 158.404 55.0829 158.241C55.5893 158.079 55.954 157.835 56.1769 157.51C56.4046 157.18 56.5184 156.753 56.5184 156.228C56.5184 155.456 56.2815 154.885 55.8076 154.513C55.3384 154.137 54.6068 153.949 53.6127 153.949H51.3898V158.395C51.8497 158.455 52.4002 158.485 53.0413 158.485ZM68.3232 158.966L64.9785 154.458C64.7601 154.476 64.5046 154.486 64.212 154.486C63.7799 154.486 63.32 154.469 62.8323 154.437V158.966H62.2191V148.772C62.6186 148.702 63.0018 148.649 63.3688 148.611C63.7405 148.574 64.1446 148.556 64.5813 148.556C65.817 148.556 66.7344 148.797 67.3337 149.28C67.9376 149.759 68.2395 150.49 68.2395 151.475C68.2442 152.279 68.0259 152.925 67.5845 153.412C67.1479 153.896 66.4929 154.216 65.6195 154.374L69.0409 158.966H68.3232ZM64.1911 153.935C65.3896 153.935 66.2629 153.738 66.8111 153.343C67.3592 152.948 67.6333 152.332 67.6333 151.496C67.6333 150.939 67.5288 150.486 67.3197 150.137C67.1107 149.789 66.7809 149.531 66.3303 149.364C65.8797 149.197 65.292 149.113 64.5673 149.113C64.2329 149.113 63.9332 149.125 63.6684 149.148C63.4083 149.171 63.1296 149.206 62.8323 149.252V153.886C63.3247 153.919 63.7776 153.935 64.1911 153.935ZM79.9915 158.966L78.7303 155.364H74.4518L73.1906 158.966H72.5495L76.1869 148.653H77.0022L80.6465 158.966H79.9915ZM74.647 154.792H78.5282L76.5911 149.239L74.647 154.792ZM86.7889 159.091C86.4405 159.091 86.0735 159.059 85.688 158.994C85.307 158.934 84.9424 158.841 84.594 158.715V158.13C85.3558 158.39 86.0991 158.52 86.8238 158.52C87.6832 158.52 88.3289 158.337 88.7609 157.97C89.1976 157.603 89.4159 157.057 89.4159 156.332C89.4159 155.923 89.3439 155.582 89.1999 155.308C89.0605 155.034 88.8375 154.801 88.531 154.611C88.229 154.421 87.8179 154.246 87.2976 154.088L86.8725 153.963C86.0642 153.721 85.4627 153.382 85.0678 152.946C84.6729 152.504 84.4755 151.931 84.4755 151.224C84.4755 150.662 84.5986 150.182 84.8448 149.782C85.091 149.378 85.4557 149.069 85.9388 148.855C86.4219 148.637 87.0119 148.528 87.7087 148.528C88.0385 148.528 88.3777 148.553 88.7261 148.604C89.0745 148.651 89.3857 148.718 89.6598 148.807V149.392C89.0419 149.197 88.3869 149.099 87.6948 149.099C86.8354 149.099 86.1897 149.278 85.7576 149.636C85.3303 149.993 85.1166 150.511 85.1166 151.19C85.1166 151.584 85.1839 151.919 85.3186 152.193C85.4534 152.462 85.6647 152.692 85.9527 152.883C86.2454 153.069 86.6403 153.236 87.1373 153.385L87.5624 153.51C88.4125 153.766 89.0396 154.116 89.4438 154.562C89.8526 155.004 90.057 155.582 90.057 156.297C90.057 157.194 89.7736 157.884 89.2069 158.367C88.6401 158.85 87.8341 159.091 86.7889 159.091ZM95.1174 158.966V148.653H95.7375V158.966H95.1174ZM101.483 158.966V148.653H102.104V158.395H106.974V158.966H101.483ZM126.199 148.653H126.903V158.966H126.311V149.782L122.813 157.565H122.179L118.674 149.81V158.966H118.081V148.653H118.785L122.506 156.938L126.199 148.653ZM139.133 158.966L137.872 155.364H133.593L132.332 158.966H131.691L135.328 148.653H136.144L139.788 158.966H139.133ZM133.788 154.792H137.67L135.733 149.239L133.788 154.792ZM145.93 159.091C145.582 159.091 145.215 159.059 144.829 158.994C144.448 158.934 144.084 158.841 143.735 158.715V158.13C144.497 158.39 145.241 158.52 145.965 158.52C146.825 158.52 147.47 158.337 147.902 157.97C148.339 157.603 148.557 157.057 148.557 156.332C148.557 155.923 148.485 155.582 148.341 155.308C148.202 155.034 147.979 154.801 147.672 154.611C147.37 154.421 146.959 154.246 146.439 154.088L146.014 153.963C145.206 153.721 144.604 153.382 144.209 152.946C143.814 152.504 143.617 151.931 143.617 151.224C143.617 150.662 143.74 150.182 143.986 149.782C144.232 149.378 144.597 149.069 145.08 148.855C145.563 148.637 146.153 148.528 146.85 148.528C147.18 148.528 147.519 148.553 147.868 148.604C148.216 148.651 148.527 148.718 148.801 148.807V149.392C148.183 149.197 147.528 149.099 146.836 149.099C145.977 149.099 145.331 149.278 144.899 149.636C144.472 149.993 144.258 150.511 144.258 151.19C144.258 151.584 144.325 151.919 144.46 152.193C144.595 152.462 144.806 152.692 145.094 152.883C145.387 153.069 145.782 153.236 146.279 153.385L146.704 153.51C147.554 153.766 148.181 154.116 148.585 154.562C148.994 155.004 149.198 155.582 149.198 156.297C149.198 157.194 148.915 157.884 148.348 158.367C147.782 158.85 146.976 159.091 145.93 159.091ZM155.889 159.091C155.541 159.091 155.174 159.059 154.788 158.994C154.407 158.934 154.043 158.841 153.694 158.715V158.13C154.456 158.39 155.2 158.52 155.924 158.52C156.784 158.52 157.429 158.337 157.861 157.97C158.298 157.603 158.516 157.057 158.516 156.332C158.516 155.923 158.444 155.582 158.3 155.308C158.161 155.034 157.938 154.801 157.631 154.611C157.329 154.421 156.918 154.246 156.398 154.088L155.973 153.963C155.165 153.721 154.563 153.382 154.168 152.946C153.773 152.504 153.576 151.931 153.576 151.224C153.576 150.662 153.699 150.182 153.945 149.782C154.191 149.378 154.556 149.069 155.039 148.855C155.522 148.637 156.112 148.528 156.809 148.528C157.139 148.528 157.478 148.553 157.827 148.604C158.175 148.651 158.486 148.718 158.76 148.807V149.392C158.142 149.197 157.487 149.099 156.795 149.099C155.936 149.099 155.29 149.278 154.858 149.636C154.431 149.993 154.217 150.511 154.217 151.19C154.217 151.584 154.284 151.919 154.419 152.193C154.554 152.462 154.765 152.692 155.053 152.883C155.346 153.069 155.741 153.236 156.238 153.385L156.663 153.51C157.513 153.766 158.14 154.116 158.544 154.562C158.953 155.004 159.157 155.582 159.157 156.297C159.157 157.194 158.874 157.884 158.307 158.367C157.741 158.85 156.935 159.091 155.889 159.091ZM170.67 158.966L169.409 155.364H165.131L163.869 158.966H163.228L166.866 148.653H167.681L171.325 158.966H170.67ZM165.326 154.792H169.207L167.27 149.239L165.326 154.792ZM182.163 153.949V158.862C181.782 158.927 181.438 158.973 181.131 159.001C180.829 159.029 180.518 159.043 180.198 159.043C179.138 159.043 178.258 158.869 177.557 158.52C176.86 158.167 176.333 157.607 175.975 156.841C175.617 156.074 175.438 155.069 175.438 153.824C175.438 151.961 175.822 150.614 176.588 149.782C177.359 148.946 178.456 148.528 179.877 148.528C180.583 148.528 181.287 148.628 181.988 148.827V149.413C181.301 149.204 180.595 149.099 179.87 149.099C179.057 149.099 178.372 149.25 177.814 149.552C177.262 149.849 176.837 150.346 176.539 151.043C176.242 151.74 176.093 152.667 176.093 153.824C176.093 154.957 176.242 155.863 176.539 156.541C176.841 157.219 177.29 157.709 177.884 158.011C178.483 158.313 179.25 158.464 180.184 158.464C180.718 158.464 181.175 158.43 181.556 158.36V153.949H182.163ZM188.335 158.395H193.408V158.966H187.715V148.653H193.338V149.225H188.335V153.385H192.69V153.949H188.335V158.395Z" fill="black"/>
<path d="M54.9715 153.635L54.938 153.488L54.9449 153.784L54.9715 153.635ZM56.602 154.506L56.4836 154.6L56.4841 154.601L56.602 154.506ZM56.1491 158.346L56.2365 158.469L56.2367 158.469L56.1491 158.346ZM50.7766 158.917H50.6255V159.052L50.7589 159.067L50.7766 158.917ZM50.7766 148.779L50.7475 148.63L50.6255 148.654V148.779H50.7766ZM55.285 148.848L55.2332 148.99L55.2343 148.991L55.285 148.848ZM56.4626 149.726L56.3351 149.807L56.3362 149.809L56.4626 149.726ZM56.3999 152.771L56.2759 152.685V152.685L56.3999 152.771ZM51.3898 149.246L51.3639 149.097L51.2387 149.118V149.246H51.3898ZM51.3898 153.385H51.2387V153.536H51.3898V153.385ZM55.0481 153.141L55.1029 153.282V153.282L55.0481 153.141ZM55.947 152.43L55.8167 152.353L55.8164 152.354L55.947 152.43ZM55.9261 150.005L55.7989 150.087V150.087L55.9261 150.005ZM54.9645 149.322L54.9172 149.466L54.9176 149.466L54.9645 149.322ZM55.0829 158.241L55.0367 158.097V158.097L55.0829 158.241ZM56.1769 157.51L56.0526 157.424L56.0523 157.424L56.1769 157.51ZM55.8076 154.513L55.7131 154.631L55.7144 154.632L55.8076 154.513ZM51.3898 153.949V153.798H51.2387V153.949H51.3898ZM51.3898 158.395H51.2387V158.527L51.3702 158.545L51.3898 158.395ZM54.9715 153.635L54.9449 153.784C55.6487 153.91 56.1548 154.186 56.4836 154.6L56.602 154.506L56.7204 154.412C56.3338 153.926 55.7529 153.621 54.998 153.487L54.9715 153.635ZM56.602 154.506L56.4841 154.601C56.8159 155.015 56.9874 155.55 56.9874 156.221H57.1385H57.2897C57.2897 155.497 57.1035 154.89 56.7199 154.412L56.602 154.506ZM57.1385 156.221H56.9874C56.9874 157.129 56.6741 157.787 56.0615 158.223L56.1491 158.346L56.2367 158.469C56.9434 157.966 57.2897 157.208 57.2897 156.221H57.1385ZM56.1491 158.346L56.0616 158.223C55.4457 158.659 54.4304 158.892 52.9855 158.892V159.043V159.194C54.4487 159.194 55.5424 158.961 56.2365 158.469L56.1491 158.346ZM52.9855 159.043V158.892C52.2245 158.892 51.4942 158.85 50.7944 158.767L50.7766 158.917L50.7589 159.067C51.4713 159.152 52.2136 159.194 52.9855 159.194V159.043ZM50.7766 158.917H50.9278V148.779H50.7766H50.6255V158.917H50.7766ZM50.7766 148.779L50.8058 148.927C51.5523 148.78 52.3531 148.707 53.2085 148.707V148.556V148.405C52.3358 148.405 51.5154 148.48 50.7475 148.63L50.7766 148.779ZM53.2085 148.556V148.707C54.0488 148.707 54.7216 148.803 55.2332 148.99L55.285 148.848L55.3369 148.706C54.78 148.503 54.0684 148.405 53.2085 148.405V148.556ZM55.285 148.848L55.2343 148.991C55.7437 149.172 56.1059 149.447 56.3351 149.807L56.4626 149.726L56.5902 149.645C56.3177 149.216 55.8948 148.905 55.3358 148.706L55.285 148.848ZM56.4626 149.726L56.3362 149.809C56.5712 150.168 56.6947 150.639 56.6947 151.231H56.8459H56.997C56.997 150.598 56.865 150.065 56.5891 149.644L56.4626 149.726ZM56.8459 151.231H56.6947C56.6947 151.805 56.553 152.287 56.2759 152.685L56.3999 152.771L56.524 152.858C56.8415 152.401 56.997 151.857 56.997 151.231H56.8459ZM56.3999 152.771L56.2759 152.685C56.0058 153.073 55.5672 153.345 54.938 153.488L54.9715 153.635L55.0049 153.783C55.6857 153.628 56.1995 153.324 56.524 152.858L56.3999 152.771ZM53.2155 149.106V148.955C52.5261 148.955 51.9086 149.002 51.3639 149.097L51.3898 149.246L51.4157 149.394C51.9395 149.303 52.5392 149.257 53.2155 149.257V149.106ZM51.3898 149.246H51.2387V153.385H51.3898H51.541V149.246H51.3898ZM51.3898 153.385V153.536H53.3758V153.385V153.233H51.3898V153.385ZM53.3758 153.385V153.536C54.0821 153.536 54.6604 153.454 55.1029 153.282L55.0481 153.141L54.9933 153C54.5996 153.153 54.0631 153.233 53.3758 153.233V153.385ZM55.0481 153.141L55.1029 153.282C55.5448 153.11 55.8754 152.853 56.0776 152.506L55.947 152.43L55.8164 152.354C55.6563 152.629 55.3875 152.847 54.9933 153L55.0481 153.141ZM55.947 152.43L56.0773 152.507C56.2803 152.161 56.3769 151.736 56.3769 151.238H56.2257H56.0746C56.0746 151.698 55.9853 152.067 55.8167 152.353L55.947 152.43ZM56.2257 151.238H56.3769C56.3769 150.709 56.2736 150.267 56.0533 149.923L55.9261 150.005L55.7989 150.087C55.9781 150.366 56.0746 150.746 56.0746 151.238H56.2257ZM55.9261 150.005L56.0533 149.923C55.8303 149.576 55.4772 149.33 55.0114 149.178L54.9645 149.322L54.9176 149.466C55.3345 149.602 55.6224 149.812 55.7989 150.087L55.9261 150.005ZM54.9645 149.322L55.0118 149.179C54.5536 149.028 53.9526 148.955 53.2155 148.955V149.106V149.257C53.937 149.257 54.502 149.329 54.9172 149.466L54.9645 149.322ZM53.0413 158.485V158.636C53.9034 158.636 54.6016 158.555 55.1292 158.385L55.0829 158.241L55.0367 158.097C54.5516 158.253 53.8887 158.334 53.0413 158.334V158.485ZM55.0829 158.241L55.1292 158.385C55.6564 158.216 56.054 157.956 56.3016 157.595L56.1769 157.51L56.0523 157.424C55.8539 157.714 55.5222 157.942 55.0367 158.097L55.0829 158.241ZM56.1769 157.51L56.3013 157.596C56.551 157.234 56.6695 156.774 56.6695 156.228H56.5184H56.3672C56.3672 156.731 56.2581 157.126 56.0526 157.424L56.1769 157.51ZM56.5184 156.228H56.6695C56.6695 155.424 56.4212 154.803 55.9009 154.395L55.8076 154.513L55.7144 154.632C56.1418 154.968 56.3672 155.489 56.3672 156.228H56.5184ZM55.8076 154.513L55.9022 154.396C55.3936 153.988 54.6205 153.798 53.6127 153.798V153.949V154.1C54.5931 154.1 55.2833 154.287 55.7131 154.631L55.8076 154.513ZM53.6127 153.949V153.798H51.3898V153.949V154.1H53.6127V153.949ZM51.3898 153.949H51.2387V158.395H51.3898H51.541V153.949H51.3898ZM51.3898 158.395L51.3702 158.545C51.8385 158.606 52.3959 158.636 53.0413 158.636V158.485V158.334C52.4045 158.334 51.861 158.304 51.4095 158.245L51.3898 158.395ZM68.3232 158.966L68.2018 159.056L68.2471 159.117H68.3232V158.966ZM64.9785 154.458L65.0998 154.368L65.0496 154.3L64.9656 154.307L64.9785 154.458ZM62.8323 154.437L62.8423 154.286L62.6811 154.275V154.437H62.8323ZM62.8323 158.966V159.117H62.9834V158.966H62.8323ZM62.2191 158.966H62.0679V159.117H62.2191V158.966ZM62.2191 148.772L62.1931 148.623L62.0679 148.645V148.772H62.2191ZM63.3688 148.611L63.3538 148.461L63.3536 148.461L63.3688 148.611ZM67.3337 149.28L67.2388 149.398L67.2398 149.399L67.3337 149.28ZM68.2395 151.475H68.0884L68.0884 151.476L68.2395 151.475ZM67.5845 153.412L67.4725 153.311L67.4724 153.311L67.5845 153.412ZM65.6195 154.374L65.5926 154.225L65.3526 154.269L65.4983 154.464L65.6195 154.374ZM69.0409 158.966V159.117H69.342L69.1621 158.876L69.0409 158.966ZM66.8111 153.343L66.7227 153.22V153.22L66.8111 153.343ZM67.3197 150.137L67.4493 150.06V150.06L67.3197 150.137ZM63.6684 149.148L63.6552 148.997L63.655 148.997L63.6684 149.148ZM62.8323 149.252L62.8089 149.103L62.6811 149.123V149.252H62.8323ZM62.8323 153.886H62.6811V154.028L62.8223 154.037L62.8323 153.886ZM68.3232 158.966L68.4445 158.876L65.0998 154.368L64.9785 154.458L64.8571 154.548L68.2018 159.056L68.3232 158.966ZM64.9785 154.458L64.9656 154.307C64.7527 154.325 64.5017 154.334 64.212 154.334V154.486V154.637C64.5076 154.637 64.7675 154.627 64.9913 154.608L64.9785 154.458ZM64.212 154.486V154.334C63.7837 154.334 63.3272 154.318 62.8423 154.286L62.8323 154.437L62.8222 154.588C63.3129 154.62 63.7762 154.637 64.212 154.637V154.486ZM62.8323 154.437H62.6811V158.966H62.8323H62.9834V154.437H62.8323ZM62.8323 158.966V158.815H62.2191V158.966V159.117H62.8323V158.966ZM62.2191 158.966H62.3702V148.772H62.2191H62.0679V158.966H62.2191ZM62.2191 148.772L62.245 148.921C62.6413 148.851 63.021 148.799 63.384 148.762L63.3688 148.611L63.3536 148.461C62.9827 148.499 62.5958 148.553 62.1931 148.623L62.2191 148.772ZM63.3688 148.611L63.3839 148.762C63.7497 148.725 64.1488 148.707 64.5813 148.707V148.556V148.405C64.1404 148.405 63.7312 148.423 63.3538 148.461L63.3688 148.611ZM64.5813 148.556V148.707C65.8019 148.707 66.6785 148.946 67.2388 149.398L67.3337 149.28L67.4285 149.163C66.7904 148.648 65.832 148.405 64.5813 148.405V148.556ZM67.3337 149.28L67.2398 149.399C67.7978 149.841 68.0884 150.523 68.0884 151.475H68.2395H68.3907C68.3907 150.458 68.0773 149.677 67.4275 149.162L67.3337 149.28ZM68.2395 151.475L68.0884 151.476C68.0929 152.251 67.8831 152.857 67.4725 153.311L67.5845 153.412L67.6966 153.514C68.1686 152.992 68.3955 152.307 68.3907 151.474L68.2395 151.475ZM67.5845 153.412L67.4724 153.311C67.065 153.762 66.4449 154.071 65.5926 154.225L65.6195 154.374L65.6464 154.523C66.5408 154.361 67.2307 154.029 67.6967 153.514L67.5845 153.412ZM65.6195 154.374L65.4983 154.464L68.9197 159.056L69.0409 158.966L69.1621 158.876L65.7407 154.284L65.6195 154.374ZM69.0409 158.966V158.815H68.3232V158.966V159.117H69.0409V158.966ZM64.1911 153.935V154.086C65.3996 154.086 66.3123 153.888 66.8994 153.465L66.8111 153.343L66.7227 153.22C66.2136 153.587 65.3795 153.784 64.1911 153.784V153.935ZM66.8111 153.343L66.8994 153.465C67.4965 153.035 67.7845 152.368 67.7845 151.496H67.6333H67.4822C67.4822 152.297 67.222 152.861 66.7227 153.22L66.8111 153.343ZM67.6333 151.496H67.7845C67.7845 150.921 67.6768 150.439 67.4493 150.06L67.3197 150.137L67.1901 150.215C67.3808 150.533 67.4822 150.956 67.4822 151.496H67.6333ZM67.3197 150.137L67.4493 150.06C67.2195 149.677 66.8595 149.399 66.3829 149.222L66.3303 149.364L66.2777 149.506C66.7022 149.663 67.0019 149.901 67.1901 150.215L67.3197 150.137ZM66.3303 149.364L66.3829 149.222C65.9092 149.046 65.3018 148.962 64.5673 148.962V149.113V149.264C65.2823 149.264 65.8502 149.347 66.2777 149.506L66.3303 149.364ZM64.5673 149.113V148.962C64.2295 148.962 63.9254 148.974 63.6552 148.997L63.6684 149.148L63.6817 149.299C63.9411 149.276 64.2362 149.264 64.5673 149.264V149.113ZM63.6684 149.148L63.655 148.997C63.3911 149.021 63.109 149.056 62.8089 149.103L62.8323 149.252L62.8556 149.402C63.1501 149.356 63.4255 149.321 63.6819 149.299L63.6684 149.148ZM62.8323 149.252H62.6811V153.886H62.8323H62.9834V149.252H62.8323ZM62.8323 153.886L62.8223 154.037C63.3174 154.07 63.7737 154.086 64.1911 154.086V153.935V153.784C63.7815 153.784 63.3319 153.768 62.8422 153.735L62.8323 153.886ZM79.9915 158.966L79.8489 159.016L79.8843 159.117H79.9915V158.966ZM78.7303 155.364L78.8729 155.314L78.8375 155.212H78.7303V155.364ZM74.4518 155.364V155.212H74.3446L74.3092 155.314L74.4518 155.364ZM73.1906 158.966V159.117H73.2978L73.3333 159.016L73.1906 158.966ZM72.5495 158.966L72.407 158.916L72.336 159.117H72.5495V158.966ZM76.1869 148.653V148.502H76.08L76.0444 148.603L76.1869 148.653ZM77.0022 148.653L77.1447 148.603L77.1091 148.502H77.0022V148.653ZM80.6465 158.966V159.117H80.8602L80.789 158.916L80.6465 158.966ZM74.647 154.792L74.5043 154.742L74.4339 154.943H74.647V154.792ZM78.5282 154.792V154.943H78.741L78.6709 154.742L78.5282 154.792ZM76.5911 149.239L76.7338 149.189L76.5913 148.78L76.4484 149.189L76.5911 149.239ZM79.9915 158.966L80.1342 158.916L78.8729 155.314L78.7303 155.364L78.5876 155.413L79.8489 159.016L79.9915 158.966ZM78.7303 155.364V155.212H74.4518V155.364V155.515H78.7303V155.364ZM74.4518 155.364L74.3092 155.314L73.048 158.916L73.1906 158.966L73.3333 159.016L74.5945 155.413L74.4518 155.364ZM73.1906 158.966V158.815H72.5495V158.966V159.117H73.1906V158.966ZM72.5495 158.966L72.6921 159.016L76.3294 148.704L76.1869 148.653L76.0444 148.603L72.407 158.916L72.5495 158.966ZM76.1869 148.653V148.804H77.0022V148.653V148.502H76.1869V148.653ZM77.0022 148.653L76.8597 148.704L80.504 159.016L80.6465 158.966L80.789 158.916L77.1447 148.603L77.0022 148.653ZM80.6465 158.966V158.815H79.9915V158.966V159.117H80.6465V158.966ZM74.647 154.792V154.943H78.5282V154.792V154.641H74.647V154.792ZM78.5282 154.792L78.6709 154.742L76.7338 149.189L76.5911 149.239L76.4484 149.288L78.3855 154.842L78.5282 154.792ZM76.5911 149.239L76.4484 149.189L74.5043 154.742L74.647 154.792L74.7896 154.842L76.7337 149.288L76.5911 149.239ZM85.688 158.994L85.7131 158.845L85.7116 158.845L85.688 158.994ZM84.594 158.715H84.4428V158.821L84.5428 158.857L84.594 158.715ZM84.594 158.13L84.6428 157.987L84.4428 157.919V158.13H84.594ZM88.7609 157.97L88.6637 157.854L88.6631 157.854L88.7609 157.97ZM89.1999 155.308L89.0652 155.376L89.0661 155.378L89.1999 155.308ZM88.531 154.611L88.4503 154.739L88.4512 154.739L88.531 154.611ZM87.2976 154.088L87.3415 153.944L87.3404 153.943L87.2976 154.088ZM86.8725 153.963L86.8293 154.108L86.8298 154.108L86.8725 153.963ZM85.0678 152.946L84.9552 153.046L84.9557 153.047L85.0678 152.946ZM84.8448 149.782L84.9735 149.861L84.9739 149.861L84.8448 149.782ZM85.9388 148.855L85.9999 148.994L86.001 148.993L85.9388 148.855ZM88.7261 148.604L88.7041 148.754L88.7061 148.754L88.7261 148.604ZM89.6598 148.807H89.8109V148.696L89.7061 148.663L89.6598 148.807ZM89.6598 149.392L89.6143 149.536L89.8109 149.598V149.392H89.6598ZM85.7576 149.636L85.6612 149.519L85.6606 149.52L85.7576 149.636ZM85.3186 152.193L85.183 152.26L85.1835 152.261L85.3186 152.193ZM85.9527 152.883L85.8694 153.009L85.8717 153.01L85.9527 152.883ZM87.1373 153.385L87.094 153.529L87.0946 153.53L87.1373 153.385ZM87.5624 153.51L87.6059 153.365L87.6052 153.365L87.5624 153.51ZM89.4438 154.562L89.3318 154.664L89.3329 154.665L89.4438 154.562ZM89.2069 158.367L89.1088 158.252V158.252L89.2069 158.367ZM86.7889 159.091V158.94C86.4499 158.94 86.0913 158.909 85.7131 158.845L85.688 158.994L85.6628 159.143C86.0557 159.209 86.4311 159.243 86.7889 159.243V159.091ZM85.688 158.994L85.7116 158.845C85.3397 158.786 84.9843 158.695 84.6451 158.573L84.594 158.715L84.5428 158.857C84.9005 158.986 85.2744 159.081 85.6643 159.143L85.688 158.994ZM84.594 158.715H84.7451V158.13H84.594H84.4428V158.715H84.594ZM84.594 158.13L84.5451 158.273C85.321 158.538 86.0807 158.671 86.8238 158.671V158.52V158.369C86.1174 158.369 85.3907 158.242 84.6428 157.987L84.594 158.13ZM86.8238 158.52V158.671C87.7012 158.671 88.3884 158.484 88.8587 158.085L88.7609 157.97L88.6631 157.854C88.2694 158.189 87.6651 158.369 86.8238 158.369V158.52ZM88.7609 157.97L88.8581 158.085C89.3378 157.682 89.567 157.088 89.567 156.332H89.4159H89.2648C89.2648 157.025 89.0573 157.523 88.6637 157.854L88.7609 157.97ZM89.4159 156.332H89.567C89.567 155.906 89.4921 155.539 89.3337 155.237L89.1999 155.308L89.0661 155.378C89.1957 155.625 89.2648 155.94 89.2648 156.332H89.4159ZM89.1999 155.308L89.3346 155.239C89.1807 154.937 88.9366 154.685 88.6107 154.483L88.531 154.611L88.4512 154.739C88.7385 154.918 88.9404 155.131 89.0652 155.376L89.1999 155.308ZM88.531 154.611L88.6116 154.483C88.2939 154.283 87.8687 154.104 87.3415 153.944L87.2976 154.088L87.2537 154.233C87.767 154.389 88.1641 154.558 88.4503 154.739L88.531 154.611ZM87.2976 154.088L87.3404 153.943L86.9153 153.818L86.8725 153.963L86.8298 154.108L87.2548 154.233L87.2976 154.088ZM86.8725 153.963L86.9158 153.818C86.1231 153.581 85.5499 153.253 85.1799 152.844L85.0678 152.946L84.9557 153.047C85.3754 153.511 86.0053 153.862 86.8293 154.108L86.8725 153.963ZM85.0678 152.946L85.1804 152.845C84.815 152.436 84.6266 151.901 84.6266 151.224H84.4755H84.3244C84.3244 151.96 84.5309 152.572 84.9552 153.046L85.0678 152.946ZM84.4755 151.224H84.6266C84.6266 150.685 84.7446 150.233 84.9735 149.861L84.8448 149.782L84.7161 149.703C84.4526 150.13 84.3244 150.64 84.3244 151.224H84.4755ZM84.8448 149.782L84.9739 149.861C85.2022 149.486 85.5416 149.196 85.9999 148.994L85.9388 148.855L85.8777 148.717C85.3698 148.942 84.9798 149.27 84.7157 149.703L84.8448 149.782ZM85.9388 148.855L86.001 148.993C86.4595 148.786 87.0269 148.679 87.7087 148.679V148.528V148.377C86.9969 148.377 86.3844 148.488 85.8766 148.718L85.9388 148.855ZM87.7087 148.528V148.679C88.0307 148.679 88.3625 148.704 88.7041 148.754L88.7261 148.604L88.748 148.455C88.3928 148.403 88.0464 148.377 87.7087 148.377V148.528ZM88.7261 148.604L88.7061 148.754C89.0474 148.8 89.3496 148.865 89.6135 148.95L89.6598 148.807L89.7061 148.663C89.4218 148.571 89.1015 148.502 88.746 148.455L88.7261 148.604ZM89.6598 148.807H89.5087V149.392H89.6598H89.8109V148.807H89.6598ZM89.6598 149.392L89.7053 149.248C89.0718 149.048 88.4013 148.948 87.6948 148.948V149.099V149.25C88.3726 149.25 89.0121 149.346 89.6143 149.536L89.6598 149.392ZM87.6948 149.099V148.948C86.8181 148.948 86.1315 149.13 85.6613 149.519L85.7576 149.636L85.854 149.752C86.2478 149.426 86.8527 149.25 87.6948 149.25V149.099ZM85.7576 149.636L85.6606 149.52C85.1915 149.912 84.9654 150.477 84.9654 151.19H85.1166H85.2677C85.2677 150.545 85.469 150.074 85.8546 149.752L85.7576 149.636ZM85.1166 151.19H84.9654C84.9654 151.601 85.0356 151.96 85.183 152.26L85.3186 152.193L85.4543 152.126C85.3323 151.878 85.2677 151.568 85.2677 151.19H85.1166ZM85.3186 152.193L85.1835 152.261C85.3317 152.557 85.5625 152.806 85.8694 153.009L85.9527 152.883L86.0361 152.757C85.7669 152.579 85.5751 152.368 85.4538 152.125L85.3186 152.193ZM85.9527 152.883L85.8717 153.01C86.1804 153.206 86.5896 153.379 87.094 153.529L87.1373 153.385L87.1806 153.24C86.691 153.093 86.3104 152.931 86.0338 152.755L85.9527 152.883ZM87.1373 153.385L87.0946 153.53L87.5196 153.655L87.5624 153.51L87.6052 153.365L87.1801 153.24L87.1373 153.385ZM87.5624 153.51L87.5189 153.655C88.3544 153.906 88.9529 154.246 89.3318 154.664L89.4438 154.562L89.5558 154.461C89.1264 153.987 88.4706 153.625 87.6059 153.365L87.5624 153.51ZM89.4438 154.562L89.3329 154.665C89.7111 155.073 89.9058 155.612 89.9058 156.297H90.057H90.2081C90.2081 155.551 89.9941 154.934 89.5547 154.459L89.4438 154.562ZM90.057 156.297H89.9058C89.9058 157.159 89.635 157.803 89.1088 158.252L89.2069 158.367L89.3049 158.482C89.9122 157.964 90.2081 157.228 90.2081 156.297H90.057ZM89.2069 158.367L89.1088 158.252C88.5787 158.704 87.8126 158.94 86.7889 158.94V159.091V159.243C87.8557 159.243 88.7016 158.996 89.3049 158.482L89.2069 158.367ZM95.1174 158.966H94.9662V159.117H95.1174V158.966ZM95.1174 148.653V148.502H94.9662V148.653H95.1174ZM95.7375 148.653H95.8887V148.502H95.7375V148.653ZM95.7375 158.966V159.117H95.8887V158.966H95.7375ZM95.1174 158.966H95.2685V148.653H95.1174H94.9662V158.966H95.1174ZM95.1174 148.653V148.804H95.7375V148.653V148.502H95.1174V148.653ZM95.7375 148.653H95.5864V158.966H95.7375H95.8887V148.653H95.7375ZM95.7375 158.966V158.815H95.1174V158.966V159.117H95.7375V158.966ZM101.483 158.966H101.332V159.117H101.483V158.966ZM101.483 148.653V148.502H101.332V148.653H101.483ZM102.104 148.653H102.255V148.502H102.104V148.653ZM102.104 158.395H101.952V158.546H102.104V158.395ZM106.974 158.395H107.125V158.244H106.974V158.395ZM106.974 158.966V159.117H107.125V158.966H106.974ZM101.483 158.966H101.635V148.653H101.483H101.332V158.966H101.483ZM101.483 148.653V148.804H102.104V148.653V148.502H101.483V148.653ZM102.104 148.653H101.952V158.395H102.104H102.255V148.653H102.104ZM102.104 158.395V158.546H106.974V158.395V158.244H102.104V158.395ZM106.974 158.395H106.823V158.966H106.974H107.125V158.395H106.974ZM106.974 158.966V158.815H101.483V158.966V159.117H106.974V158.966ZM126.199 148.653V148.502H126.101L126.061 148.592L126.199 148.653ZM126.903 148.653H127.054V148.502H126.903V148.653ZM126.903 158.966V159.117H127.054V158.966H126.903ZM126.311 158.966H126.159V159.117H126.311V158.966ZM126.311 149.782H126.462L126.173 149.72L126.311 149.782ZM122.813 157.565V157.717H122.91L122.95 157.627L122.813 157.565ZM122.179 157.565L122.041 157.628L122.081 157.717H122.179V157.565ZM118.674 149.81L118.811 149.748L118.522 149.81H118.674ZM118.674 158.966V159.117H118.825V158.966H118.674ZM118.081 158.966H117.93V159.117H118.081V158.966ZM118.081 148.653V148.502H117.93V148.653H118.081ZM118.785 148.653L118.923 148.591L118.883 148.502H118.785V148.653ZM122.506 156.938L122.368 157L122.507 157.308L122.644 157L122.506 156.938ZM126.199 148.653V148.804H126.903V148.653V148.502H126.199V148.653ZM126.903 148.653H126.752V158.966H126.903H127.054V148.653H126.903ZM126.903 158.966V158.815H126.311V158.966V159.117H126.903V158.966ZM126.311 158.966H126.462V149.782H126.311H126.159V158.966H126.311ZM126.311 149.782L126.173 149.72L122.675 157.504L122.813 157.565L122.95 157.627L126.448 149.844L126.311 149.782ZM122.813 157.565V157.414H122.179V157.565V157.717H122.813V157.565ZM122.179 157.565L122.316 157.503L118.811 149.748L118.674 149.81L118.536 149.872L122.041 157.628L122.179 157.565ZM118.674 149.81H118.522V158.966H118.674H118.825V149.81H118.674ZM118.674 158.966V158.815H118.081V158.966V159.117H118.674V158.966ZM118.081 158.966H118.232V148.653H118.081H117.93V158.966H118.081ZM118.081 148.653V148.804H118.785V148.653V148.502H118.081V148.653ZM118.785 148.653L118.647 148.715L122.368 157L122.506 156.938L122.644 156.876L118.923 148.591L118.785 148.653ZM122.506 156.938L122.644 157L126.337 148.715L126.199 148.653L126.061 148.592L122.368 156.877L122.506 156.938ZM139.133 158.966L138.99 159.016L139.026 159.117H139.133V158.966ZM137.872 155.364L138.014 155.314L137.979 155.212H137.872V155.364ZM133.593 155.364V155.212H133.486L133.451 155.314L133.593 155.364ZM132.332 158.966V159.117H132.439L132.475 159.016L132.332 158.966ZM131.691 158.966L131.548 158.916L131.477 159.117H131.691V158.966ZM135.328 148.653V148.502H135.221L135.186 148.603L135.328 148.653ZM136.144 148.653L136.286 148.603L136.251 148.502H136.144V148.653ZM139.788 158.966V159.117H140.002L139.93 158.916L139.788 158.966ZM133.788 154.792L133.646 154.742L133.575 154.943H133.788V154.792ZM137.67 154.792V154.943H137.882L137.812 154.742L137.67 154.792ZM135.733 149.239L135.875 149.189L135.733 148.78L135.59 149.189L135.733 149.239ZM139.133 158.966L139.276 158.916L138.014 155.314L137.872 155.364L137.729 155.413L138.99 159.016L139.133 158.966ZM137.872 155.364V155.212H133.593V155.364V155.515H137.872V155.364ZM133.593 155.364L133.451 155.314L132.189 158.916L132.332 158.966L132.475 159.016L133.736 155.413L133.593 155.364ZM132.332 158.966V158.815H131.691V158.966V159.117H132.332V158.966ZM131.691 158.966L131.834 159.016L135.471 148.704L135.328 148.653L135.186 148.603L131.548 158.916L131.691 158.966ZM135.328 148.653V148.804H136.144V148.653V148.502H135.328V148.653ZM136.144 148.653L136.001 148.704L139.645 159.016L139.788 158.966L139.93 158.916L136.286 148.603L136.144 148.653ZM139.788 158.966V158.815H139.133V158.966V159.117H139.788V158.966ZM133.788 154.792V154.943H137.67V154.792V154.641H133.788V154.792ZM137.67 154.792L137.812 154.742L135.875 149.189L135.733 149.239L135.59 149.288L137.527 154.842L137.67 154.792ZM135.733 149.239L135.59 149.189L133.646 154.742L133.788 154.792L133.931 154.842L135.875 149.288L135.733 149.239ZM144.829 158.994L144.855 158.845L144.853 158.845L144.829 158.994ZM143.735 158.715H143.584V158.821L143.684 158.857L143.735 158.715ZM143.735 158.13L143.784 157.987L143.584 157.919V158.13H143.735ZM147.902 157.97L147.805 157.854L147.805 157.854L147.902 157.97ZM148.341 155.308L148.207 155.376L148.208 155.378L148.341 155.308ZM147.672 154.611L147.592 154.739L147.593 154.739L147.672 154.611ZM146.439 154.088L146.483 153.944L146.482 153.943L146.439 154.088ZM146.014 153.963L145.971 154.108L145.971 154.108L146.014 153.963ZM144.209 152.946L144.097 153.046L144.097 153.047L144.209 152.946ZM143.986 149.782L144.115 149.861L144.115 149.861L143.986 149.782ZM145.08 148.855L145.141 148.994L145.143 148.993L145.08 148.855ZM147.868 148.604L147.846 148.754L147.848 148.754L147.868 148.604ZM148.801 148.807H148.952V148.696L148.848 148.663L148.801 148.807ZM148.801 149.392L148.756 149.536L148.952 149.598V149.392H148.801ZM144.899 149.636L144.803 149.519L144.802 149.52L144.899 149.636ZM144.46 152.193L144.324 152.26L144.325 152.261L144.46 152.193ZM145.094 152.883L145.011 153.009L145.013 153.01L145.094 152.883ZM146.279 153.385L146.235 153.529L146.236 153.53L146.279 153.385ZM146.704 153.51L146.747 153.365L146.747 153.365L146.704 153.51ZM148.585 154.562L148.473 154.664L148.474 154.665L148.585 154.562ZM148.348 158.367L148.25 158.252V158.252L148.348 158.367ZM145.93 159.091V158.94C145.591 158.94 145.233 158.909 144.855 158.845L144.829 158.994L144.804 159.143C145.197 159.209 145.573 159.243 145.93 159.243V159.091ZM144.829 158.994L144.853 158.845C144.481 158.786 144.126 158.695 143.787 158.573L143.735 158.715L143.684 158.857C144.042 158.986 144.416 159.081 144.806 159.143L144.829 158.994ZM143.735 158.715H143.887V158.13H143.735H143.584V158.715H143.735ZM143.735 158.13L143.687 158.273C144.462 158.538 145.222 158.671 145.965 158.671V158.52V158.369C145.259 158.369 144.532 158.242 143.784 157.987L143.735 158.13ZM145.965 158.52V158.671C146.843 158.671 147.53 158.484 148 158.085L147.902 157.97L147.805 157.854C147.411 158.189 146.807 158.369 145.965 158.369V158.52ZM147.902 157.97L148 158.085C148.479 157.682 148.709 157.088 148.709 156.332H148.557H148.406C148.406 157.025 148.199 157.523 147.805 157.854L147.902 157.97ZM148.557 156.332H148.709C148.709 155.906 148.634 155.539 148.475 155.237L148.341 155.308L148.208 155.378C148.337 155.625 148.406 155.94 148.406 156.332H148.557ZM148.341 155.308L148.476 155.239C148.322 154.937 148.078 154.685 147.752 154.483L147.672 154.611L147.593 154.739C147.88 154.918 148.082 155.131 148.207 155.376L148.341 155.308ZM147.672 154.611L147.753 154.483C147.435 154.283 147.01 154.104 146.483 153.944L146.439 154.088L146.395 154.233C146.909 154.389 147.306 154.558 147.592 154.739L147.672 154.611ZM146.439 154.088L146.482 153.943L146.057 153.818L146.014 153.963L145.971 154.108L146.396 154.233L146.439 154.088ZM146.014 153.963L146.057 153.818C145.265 153.581 144.691 153.253 144.321 152.844L144.209 152.946L144.097 153.047C144.517 153.511 145.147 153.862 145.971 154.108L146.014 153.963ZM144.209 152.946L144.322 152.845C143.956 152.436 143.768 151.901 143.768 151.224H143.617H143.466C143.466 151.96 143.672 152.572 144.097 153.046L144.209 152.946ZM143.617 151.224H143.768C143.768 150.685 143.886 150.233 144.115 149.861L143.986 149.782L143.858 149.703C143.594 150.13 143.466 150.64 143.466 151.224H143.617ZM143.986 149.782L144.115 149.861C144.344 149.486 144.683 149.196 145.141 148.994L145.08 148.855L145.019 148.717C144.511 148.942 144.121 149.27 143.857 149.703L143.986 149.782ZM145.08 148.855L145.143 148.993C145.601 148.786 146.168 148.679 146.85 148.679V148.528V148.377C146.138 148.377 145.526 148.488 145.018 148.718L145.08 148.855ZM146.85 148.528V148.679C147.172 148.679 147.504 148.704 147.846 148.754L147.868 148.604L147.889 148.455C147.534 148.403 147.188 148.377 146.85 148.377V148.528ZM147.868 148.604L147.848 148.754C148.189 148.8 148.491 148.865 148.755 148.95L148.801 148.807L148.848 148.663C148.563 148.571 148.243 148.502 147.887 148.455L147.868 148.604ZM148.801 148.807H148.65V149.392H148.801H148.952V148.807H148.801ZM148.801 149.392L148.847 149.248C148.213 149.048 147.543 148.948 146.836 148.948V149.099V149.25C147.514 149.25 148.154 149.346 148.756 149.536L148.801 149.392ZM146.836 149.099V148.948C145.96 148.948 145.273 149.13 144.803 149.519L144.899 149.636L144.995 149.752C145.389 149.426 145.994 149.25 146.836 149.25V149.099ZM144.899 149.636L144.802 149.52C144.333 149.912 144.107 150.477 144.107 151.19H144.258H144.409C144.409 150.545 144.61 150.074 144.996 149.752L144.899 149.636ZM144.258 151.19H144.107C144.107 151.601 144.177 151.96 144.324 152.26L144.46 152.193L144.596 152.126C144.474 151.878 144.409 151.568 144.409 151.19H144.258ZM144.46 152.193L144.325 152.261C144.473 152.557 144.704 152.806 145.011 153.009L145.094 152.883L145.178 152.757C144.908 152.579 144.717 152.368 144.595 152.125L144.46 152.193ZM145.094 152.883L145.013 153.01C145.322 153.206 145.731 153.379 146.235 153.529L146.279 153.385L146.322 153.24C145.832 153.093 145.452 152.931 145.175 152.755L145.094 152.883ZM146.279 153.385L146.236 153.53L146.661 153.655L146.704 153.51L146.747 153.365L146.322 153.24L146.279 153.385ZM146.704 153.51L146.66 153.655C147.496 153.906 148.094 154.246 148.473 154.664L148.585 154.562L148.697 154.461C148.268 153.987 147.612 153.625 146.747 153.365L146.704 153.51ZM148.585 154.562L148.474 154.665C148.853 155.073 149.047 155.612 149.047 156.297H149.198H149.35C149.35 155.551 149.136 154.934 148.696 154.459L148.585 154.562ZM149.198 156.297H149.047C149.047 157.159 148.776 157.803 148.25 158.252L148.348 158.367L148.446 158.482C149.054 157.964 149.35 157.228 149.35 156.297H149.198ZM148.348 158.367L148.25 158.252C147.72 158.704 146.954 158.94 145.93 158.94V159.091V159.243C146.997 159.243 147.843 158.996 148.446 158.482L148.348 158.367ZM154.788 158.994L154.814 158.845L154.812 158.845L154.788 158.994ZM153.694 158.715H153.543V158.821L153.643 158.857L153.694 158.715ZM153.694 158.13L153.743 157.987L153.543 157.919V158.13H153.694ZM157.861 157.97L157.764 157.854L157.763 157.854L157.861 157.97ZM158.3 155.308L158.166 155.376L158.167 155.378L158.3 155.308ZM157.631 154.611L157.551 154.739L157.552 154.739L157.631 154.611ZM156.398 154.088L156.442 153.944L156.441 153.943L156.398 154.088ZM155.973 153.963L155.93 154.108L155.93 154.108L155.973 153.963ZM154.168 152.946L154.056 153.046L154.056 153.047L154.168 152.946ZM153.945 149.782L154.074 149.861L154.074 149.861L153.945 149.782ZM155.039 148.855L155.1 148.994L155.101 148.993L155.039 148.855ZM157.827 148.604L157.805 148.754L157.807 148.754L157.827 148.604ZM158.76 148.807H158.911V148.696L158.807 148.663L158.76 148.807ZM158.76 149.392L158.715 149.536L158.911 149.598V149.392H158.76ZM154.858 149.636L154.762 149.519L154.761 149.52L154.858 149.636ZM154.419 152.193L154.283 152.26L154.284 152.261L154.419 152.193ZM155.053 152.883L154.97 153.009L154.972 153.01L155.053 152.883ZM156.238 153.385L156.194 153.529L156.195 153.53L156.238 153.385ZM156.663 153.51L156.706 153.365L156.706 153.365L156.663 153.51ZM158.544 154.562L158.432 154.664L158.433 154.665L158.544 154.562ZM158.307 158.367L158.209 158.252V158.252L158.307 158.367ZM155.889 159.091V158.94C155.55 158.94 155.192 158.909 154.814 158.845L154.788 158.994L154.763 159.143C155.156 159.209 155.532 159.243 155.889 159.243V159.091ZM154.788 158.994L154.812 158.845C154.44 158.786 154.085 158.695 153.746 158.573L153.694 158.715L153.643 158.857C154.001 158.986 154.375 159.081 154.765 159.143L154.788 158.994ZM153.694 158.715H153.846V158.13H153.694H153.543V158.715H153.694ZM153.694 158.13L153.646 158.273C154.421 158.538 155.181 158.671 155.924 158.671V158.52V158.369C155.218 158.369 154.491 158.242 153.743 157.987L153.694 158.13ZM155.924 158.52V158.671C156.802 158.671 157.489 158.484 157.959 158.085L157.861 157.97L157.763 157.854C157.37 158.189 156.766 158.369 155.924 158.369V158.52ZM157.861 157.97L157.959 158.085C158.438 157.682 158.667 157.088 158.667 156.332H158.516H158.365C158.365 157.025 158.158 157.523 157.764 157.854L157.861 157.97ZM158.516 156.332H158.667C158.667 155.906 158.593 155.539 158.434 155.237L158.3 155.308L158.167 155.378C158.296 155.625 158.365 155.94 158.365 156.332H158.516ZM158.3 155.308L158.435 155.239C158.281 154.937 158.037 154.685 157.711 154.483L157.631 154.611L157.552 154.739C157.839 154.918 158.041 155.131 158.166 155.376L158.3 155.308ZM157.631 154.611L157.712 154.483C157.394 154.283 156.969 154.104 156.442 153.944L156.398 154.088L156.354 154.233C156.867 154.389 157.265 154.558 157.551 154.739L157.631 154.611ZM156.398 154.088L156.441 153.943L156.016 153.818L155.973 153.963L155.93 154.108L156.355 154.233L156.398 154.088ZM155.973 153.963L156.016 153.818C155.224 153.581 154.65 153.253 154.28 152.844L154.168 152.946L154.056 153.047C154.476 153.511 155.106 153.862 155.93 154.108L155.973 153.963ZM154.168 152.946L154.281 152.845C153.915 152.436 153.727 151.901 153.727 151.224H153.576H153.425C153.425 151.96 153.631 152.572 154.056 153.046L154.168 152.946ZM153.576 151.224H153.727C153.727 150.685 153.845 150.233 154.074 149.861L153.945 149.782L153.817 149.703C153.553 150.13 153.425 150.64 153.425 151.224H153.576ZM153.945 149.782L154.074 149.861C154.303 149.486 154.642 149.196 155.1 148.994L155.039 148.855L154.978 148.717C154.47 148.942 154.08 149.27 153.816 149.703L153.945 149.782ZM155.039 148.855L155.101 148.993C155.56 148.786 156.127 148.679 156.809 148.679V148.528V148.377C156.097 148.377 155.485 148.488 154.977 148.718L155.039 148.855ZM156.809 148.528V148.679C157.131 148.679 157.463 148.704 157.805 148.754L157.827 148.604L157.848 148.455C157.493 148.403 157.147 148.377 156.809 148.377V148.528ZM157.827 148.604L157.807 148.754C158.148 148.8 158.45 148.865 158.714 148.95L158.76 148.807L158.807 148.663C158.522 148.571 158.202 148.502 157.846 148.455L157.827 148.604ZM158.76 148.807H158.609V149.392H158.76H158.911V148.807H158.76ZM158.76 149.392L158.806 149.248C158.172 149.048 157.502 148.948 156.795 148.948V149.099V149.25C157.473 149.25 158.113 149.346 158.715 149.536L158.76 149.392ZM156.795 149.099V148.948C155.918 148.948 155.232 149.13 154.762 149.519L154.858 149.636L154.954 149.752C155.348 149.426 155.953 149.25 156.795 149.25V149.099ZM154.858 149.636L154.761 149.52C154.292 149.912 154.066 150.477 154.066 151.19H154.217H154.368C154.368 150.545 154.569 150.074 154.955 149.752L154.858 149.636ZM154.217 151.19H154.066C154.066 151.601 154.136 151.96 154.283 152.26L154.419 152.193L154.555 152.126C154.433 151.878 154.368 151.568 154.368 151.19H154.217ZM154.419 152.193L154.284 152.261C154.432 152.557 154.663 152.806 154.97 153.009L155.053 152.883L155.137 152.757C154.867 152.579 154.675 152.368 154.554 152.125L154.419 152.193ZM155.053 152.883L154.972 153.01C155.281 153.206 155.69 153.379 156.194 153.529L156.238 153.385L156.281 153.24C155.791 153.093 155.411 152.931 155.134 152.755L155.053 152.883ZM156.238 153.385L156.195 153.53L156.62 153.655L156.663 153.51L156.706 153.365L156.281 153.24L156.238 153.385ZM156.663 153.51L156.619 153.655C157.455 153.906 158.053 154.246 158.432 154.664L158.544 154.562L158.656 154.461C158.227 153.987 157.571 153.625 156.706 153.365L156.663 153.51ZM158.544 154.562L158.433 154.665C158.811 155.073 159.006 155.612 159.006 156.297H159.157H159.309C159.309 155.551 159.095 154.934 158.655 154.459L158.544 154.562ZM159.157 156.297H159.006C159.006 157.159 158.735 157.803 158.209 158.252L158.307 158.367L158.405 158.482C159.013 157.964 159.309 157.228 159.309 156.297H159.157ZM158.307 158.367L158.209 158.252C157.679 158.704 156.913 158.94 155.889 158.94V159.091V159.243C156.956 159.243 157.802 158.996 158.405 158.482L158.307 158.367ZM170.67 158.966L170.528 159.016L170.563 159.117H170.67V158.966ZM169.409 155.364L169.552 155.314L169.516 155.212H169.409V155.364ZM165.131 155.364V155.212H165.023L164.988 155.314L165.131 155.364ZM163.869 158.966V159.117H163.977L164.012 159.016L163.869 158.966ZM163.228 158.966L163.086 158.916L163.015 159.117H163.228V158.966ZM166.866 148.653V148.502H166.759L166.723 148.603L166.866 148.653ZM167.681 148.653L167.823 148.603L167.788 148.502H167.681V148.653ZM171.325 158.966V159.117H171.539L171.468 158.916L171.325 158.966ZM165.326 154.792L165.183 154.742L165.113 154.943H165.326V154.792ZM169.207 154.792V154.943H169.42L169.35 154.742L169.207 154.792ZM167.27 149.239L167.413 149.189L167.27 148.78L167.127 149.189L167.27 149.239ZM170.67 158.966L170.813 158.916L169.552 155.314L169.409 155.364L169.266 155.413L170.528 159.016L170.67 158.966ZM169.409 155.364V155.212H165.131V155.364V155.515H169.409V155.364ZM165.131 155.364L164.988 155.314L163.727 158.916L163.869 158.966L164.012 159.016L165.273 155.413L165.131 155.364ZM163.869 158.966V158.815H163.228V158.966V159.117H163.869V158.966ZM163.228 158.966L163.371 159.016L167.008 148.704L166.866 148.653L166.723 148.603L163.086 158.916L163.228 158.966ZM166.866 148.653V148.804H167.681V148.653V148.502H166.866V148.653ZM167.681 148.653L167.538 148.704L171.183 159.016L171.325 158.966L171.468 158.916L167.823 148.603L167.681 148.653ZM171.325 158.966V158.815H170.67V158.966V159.117H171.325V158.966ZM165.326 154.792V154.943H169.207V154.792V154.641H165.326V154.792ZM169.207 154.792L169.35 154.742L167.413 149.189L167.27 149.239L167.127 149.288L169.064 154.842L169.207 154.792ZM167.27 149.239L167.127 149.189L165.183 154.742L165.326 154.792L165.468 154.842L167.412 149.288L167.27 149.239ZM182.163 153.949H182.314V153.798H182.163V153.949ZM182.163 158.862L182.188 159.011L182.314 158.989V158.862H182.163ZM181.131 159.001L181.118 158.85L181.117 158.85L181.131 159.001ZM177.557 158.52L177.488 158.655L177.489 158.655L177.557 158.52ZM175.975 156.841L176.112 156.777V156.777L175.975 156.841ZM176.588 149.782L176.477 149.68L176.477 149.68L176.588 149.782ZM181.988 148.827H182.14V148.713L182.03 148.682L181.988 148.827ZM181.988 149.413L181.944 149.557L182.14 149.617V149.413H181.988ZM177.814 149.552L177.886 149.685L177.886 149.685L177.814 149.552ZM176.539 151.043L176.4 150.984V150.984L176.539 151.043ZM176.539 156.541L176.401 156.602L176.401 156.603L176.539 156.541ZM177.884 158.011L177.816 158.146L177.816 158.146L177.884 158.011ZM181.556 158.36L181.584 158.509L181.708 158.486V158.36H181.556ZM181.556 153.949V153.798H181.405V153.949H181.556ZM182.163 153.949H182.011V158.862H182.163H182.314V153.949H182.163ZM182.163 158.862L182.137 158.713C181.759 158.777 181.419 158.823 181.118 158.85L181.131 159.001L181.145 159.151C181.456 159.123 181.804 159.076 182.188 159.011L182.163 158.862ZM181.131 159.001L181.117 158.85C180.82 158.878 180.514 158.892 180.198 158.892V159.043V159.194C180.522 159.194 180.838 159.18 181.145 159.151L181.131 159.001ZM180.198 159.043V158.892C179.154 158.892 178.298 158.72 177.624 158.385L177.557 158.52L177.489 158.655C178.218 159.017 179.123 159.194 180.198 159.194V159.043ZM177.557 158.52L177.625 158.385C176.961 158.049 176.457 157.515 176.112 156.777L175.975 156.841L175.838 156.905C176.209 157.699 176.759 158.285 177.488 158.655L177.557 158.52ZM175.975 156.841L176.112 156.777C175.767 156.038 175.589 155.056 175.589 153.824H175.438H175.287C175.287 155.081 175.468 156.111 175.838 156.905L175.975 156.841ZM175.438 153.824H175.589C175.589 151.976 175.971 150.675 176.699 149.885L176.588 149.782L176.477 149.68C175.672 150.552 175.287 151.946 175.287 153.824H175.438ZM176.588 149.782L176.699 149.885C177.435 149.087 178.486 148.679 179.877 148.679V148.528V148.377C178.425 148.377 177.284 148.805 176.477 149.68L176.588 149.782ZM179.877 148.528V148.679C180.569 148.679 181.259 148.777 181.947 148.973L181.988 148.827L182.03 148.682C181.315 148.479 180.598 148.377 179.877 148.377V148.528ZM181.988 148.827H181.837V149.413H181.988H182.14V148.827H181.988ZM181.988 149.413L182.032 149.268C181.33 149.055 180.61 148.948 179.87 148.948V149.099V149.25C180.58 149.25 181.271 149.353 181.944 149.557L181.988 149.413ZM179.87 149.099V148.948C179.039 148.948 178.327 149.102 177.742 149.419L177.814 149.552L177.886 149.685C178.416 149.398 179.075 149.25 179.87 149.25V149.099ZM177.814 149.552L177.743 149.419C177.154 149.736 176.708 150.262 176.4 150.984L176.539 151.043L176.678 151.103C176.965 150.431 177.369 149.963 177.886 149.685L177.814 149.552ZM176.539 151.043L176.4 150.984C176.092 151.707 175.942 152.656 175.942 153.824H176.093H176.244C176.244 152.678 176.392 151.773 176.678 151.103L176.539 151.043ZM176.093 153.824H175.942C175.942 154.968 176.092 155.897 176.401 156.602L176.539 156.541L176.678 156.48C176.392 155.829 176.244 154.946 176.244 153.824H176.093ZM176.539 156.541L176.401 156.603C176.716 157.309 177.187 157.827 177.816 158.146L177.884 158.011L177.953 157.877C177.392 157.592 176.967 157.13 176.677 156.48L176.539 156.541ZM177.884 158.011L177.816 158.146C178.443 158.462 179.235 158.615 180.184 158.615V158.464V158.313C179.265 158.313 178.524 158.164 177.952 157.876L177.884 158.011ZM180.184 158.464V158.615C180.724 158.615 181.191 158.58 181.584 158.509L181.556 158.36L181.529 158.211C181.16 158.279 180.712 158.313 180.184 158.313V158.464ZM181.556 158.36H181.708V153.949H181.556H181.405V158.36H181.556ZM181.556 153.949V154.1H182.163V153.949V153.798H181.556V153.949ZM188.335 158.395H188.184V158.546H188.335V158.395ZM193.408 158.395H193.559V158.244H193.408V158.395ZM193.408 158.966V159.117H193.559V158.966H193.408ZM187.715 158.966H187.564V159.117H187.715V158.966ZM187.715 148.653V148.502H187.564V148.653H187.715ZM193.338 148.653H193.49V148.502H193.338V148.653ZM193.338 149.225V149.376H193.49V149.225H193.338ZM188.335 149.225V149.073H188.184V149.225H188.335ZM188.335 153.385H188.184V153.536H188.335V153.385ZM192.69 153.385H192.841V153.233H192.69V153.385ZM192.69 153.949V154.1H192.841V153.949H192.69ZM188.335 153.949V153.798H188.184V153.949H188.335ZM188.335 158.395V158.546H193.408V158.395V158.244H188.335V158.395ZM193.408 158.395H193.257V158.966H193.408H193.559V158.395H193.408ZM193.408 158.966V158.815H187.715V158.966V159.117H193.408V158.966ZM187.715 158.966H187.866V148.653H187.715H187.564V158.966H187.715ZM187.715 148.653V148.804H193.338V148.653V148.502H187.715V148.653ZM193.338 148.653H193.187V149.225H193.338H193.49V148.653H193.338ZM193.338 149.225V149.073H188.335V149.225V149.376H193.338V149.225ZM188.335 149.225H188.184V153.385H188.335H188.486V149.225H188.335ZM188.335 153.385V153.536H192.69V153.385V153.233H188.335V153.385ZM192.69 153.385H192.539V153.949H192.69H192.841V153.385H192.69ZM192.69 153.949V153.798H188.335V153.949V154.1H192.69V153.949ZM188.335 153.949H188.184V158.395H188.335H188.486V153.949H188.335Z" fill="black"/>
<path d="M27.8561 128.624C27.5925 129.13 22.7721 138.059 14.1637 138.276C10.6745 138.363 8.08504 136.977 7.31466 136.54C2.68258 133.915 0.0390625 128.616 0.0390625 122.782C0.0390625 117.882 1.76893 113.342 4.72354 110.171C5.83449 108.979 9.66837 104.895 15.4605 104.91C20.7091 104.925 25.9789 108.304 26.8181 111.948C26.9261 112.415 27.3044 114.058 26.4366 115.382C25.7439 116.438 24.5667 116.819 23.7988 117.025C18.723 118.389 13.9713 117.471 8.02855 118.829C4.8005 119.566 4.27654 120.272 4.10953 120.526C2.06447 123.643 5.86888 132.025 12.2693 134.159C17.5064 135.906 24.0034 133.31 27.8381 127.569C27.8439 127.921 27.8496 128.273 27.8545 128.625L27.8561 128.624ZM15.3917 106.608C13.2108 106.432 9.7486 106.846 6.96918 109.495C3.34325 112.951 3.65435 117.563 3.70429 118.154C8.46982 116.784 12.135 116.506 14.7712 116.555C16.2415 116.582 18.8245 116.739 20.4676 115.08C20.6305 114.916 21.4344 114.077 21.6604 112.752C22.1254 110.021 19.6612 108.008 19.5081 107.886C18.1196 106.788 16.5977 106.707 15.3917 106.609V106.608Z" fill="black" stroke="black" stroke-width="0.0818679"/>
<path d="M112.782 128.624C112.518 129.13 107.698 138.059 99.0895 138.276C95.6003 138.363 93.0108 136.977 92.2404 136.54C87.6084 133.915 84.9648 128.616 84.9648 122.782C84.9648 117.882 86.6947 113.342 89.6493 110.171C90.7603 108.979 94.5941 104.895 100.386 104.91C105.635 104.925 110.905 108.304 111.744 111.948C111.852 112.415 112.23 114.058 111.362 115.382C110.67 116.438 109.492 116.819 108.725 117.025C103.649 118.389 98.8971 117.471 92.9543 118.829C89.7263 119.566 89.2023 120.272 89.0353 120.526C86.9903 123.643 90.7947 132.025 97.1951 134.159C102.432 135.906 108.929 133.31 112.764 127.569C112.77 127.921 112.775 128.273 112.78 128.625L112.782 128.624ZM100.318 106.608C98.1366 106.432 94.6744 106.846 91.895 109.495C88.269 112.951 88.5801 117.563 88.6301 118.154C93.3956 116.784 97.0608 116.506 99.697 116.555C101.167 116.582 103.75 116.739 105.393 115.08C105.556 114.916 106.36 114.077 106.586 112.752C107.051 110.021 104.587 108.008 104.434 107.886C103.045 106.788 101.523 106.707 100.318 106.609V106.608Z" fill="black" stroke="black" stroke-width="0.0818679"/>
<path d="M52.9471 116.757H52.347C52.4027 116.29 52.8825 111.634 49.3924 108.541C48.9954 108.188 46.6187 106.148 43.1811 106.337C42.5941 106.369 38.725 106.644 37.258 109.426C37.2088 109.519 36.5203 110.863 36.7381 112.397C37.5339 118.007 49.1918 117.325 52.7081 124.74C54.004 127.472 54.0687 131.039 52.5656 133.78C50.8497 136.909 47.6257 137.989 46.3461 138.418C40.6203 140.336 35.4339 137.58 34.2755 136.927C34.2444 133.3 34.2141 129.672 34.183 126.044C34.359 126.044 34.5342 126.042 34.7102 126.042C34.3025 130.247 36.2837 134.169 39.6354 135.854C43.6977 137.895 49.1976 136.36 50.7318 133.399C50.889 133.096 51.4056 132.003 51.1477 130.725C50.6835 128.427 48.0596 127.248 46.2626 126.354C40.6645 123.571 36.3263 121.413 34.6611 118.072C32.8772 114.493 33.9087 109.048 37.2588 106.222C40.2633 103.687 44.1619 104.078 45.448 104.207C49.2172 104.585 51.76 106.54 52.7302 107.374C52.803 110.502 52.8759 113.63 52.9488 116.758L52.9471 116.757Z" fill="black" stroke="black" stroke-width="0.0818679"/>
<path d="M78.7049 116.757H78.1048C78.1605 116.29 78.6403 111.634 75.1502 108.541C74.7532 108.188 72.3766 106.148 68.9389 106.337C68.3519 106.369 64.4828 106.644 63.0158 109.426C62.9666 109.519 62.2781 110.863 62.4959 112.397C63.2917 118.007 74.9497 117.325 78.4659 124.74C79.7619 127.472 79.8265 131.039 78.3234 133.78C76.6075 136.909 73.3835 137.989 72.1039 138.418C66.3781 140.336 61.1918 137.58 60.0333 136.927L59.9408 126.044C60.1168 126.044 60.292 126.042 60.468 126.042C60.0603 130.247 62.0415 134.169 65.3932 135.854C69.4555 137.895 74.9554 136.36 76.4896 133.399C76.6468 133.096 77.1634 132.003 76.9055 130.725C76.4413 128.427 73.8174 127.248 72.0204 126.354C66.4223 123.571 62.0841 121.413 60.4189 118.072C58.635 114.493 59.6666 109.048 63.0166 106.222C66.0211 103.687 69.9197 104.078 71.2058 104.207C74.975 104.585 77.5179 106.54 78.488 107.374C78.5609 110.502 78.6337 113.63 78.7066 116.758L78.7049 116.757Z" fill="black" stroke="black" stroke-width="0.0818679"/>
<path d="M141.701 137.411C147.165 125.303 143.691 113.585 136.789 110.133C131.752 107.614 125.848 109.978 123.958 110.828C123.962 119.689 123.966 128.55 123.97 137.411C122.088 137.411 121.66 137.425 119.777 137.425C119.828 127.805 119.879 118.185 119.93 108.564C120.088 108.515 120.246 108.46 120.404 108.394C122.319 107.608 123.386 105.887 123.942 104.695C123.941 106.229 123.94 107.762 123.939 109.296C127.4 105.07 133.085 103.344 138.27 104.937C143.314 106.487 145.267 110.845 145.906 116.119C145.875 123.202 145.844 130.284 145.813 137.366C143.865 137.361 143.648 137.416 141.7 137.412L141.701 137.411Z" fill="black" stroke="black" stroke-width="0.0818679"/>
<path d="M193.735 137.412C191.853 137.412 191.426 137.426 189.543 137.426C189.594 127.805 189.644 118.185 189.696 108.564C189.853 108.516 190.012 108.46 190.17 108.394C192.085 107.609 193.152 105.888 193.708 104.695C193.707 106.229 193.705 107.762 193.704 109.297C193.715 118.668 193.725 128.04 193.735 137.412Z" fill="black" stroke="black" stroke-width="0.0818679"/>
<path d="M181.998 131.483C180.858 132.746 175.521 138.384 167.686 138.276C166.392 138.258 163.383 138.165 160.279 136.334C155.693 133.627 153.129 128.453 153.129 123.142C153.129 120.102 153.913 117.8 154.372 116.594C154.919 115.153 156.395 111.412 160.274 108.455C161.385 107.608 165.518 104.555 171.362 104.91C174.427 105.097 176.763 106.148 178.063 106.856L178.097 113.323C174.632 107.979 168.692 105.722 164.127 107.416C158.72 109.421 157.648 116.078 157.429 117.432C156.291 124.5 160.714 130.854 164.748 133.157C166.865 134.367 169.014 134.606 169.014 134.606C171.507 134.882 173.425 134.169 174.337 133.817C179.16 131.959 181.423 127.445 181.998 126.207C181.998 127.965 181.998 129.725 181.998 131.483Z" fill="black" stroke="black" stroke-width="0.0818679"/>
<path d="M190.131 102.674C189.957 102.233 188.649 98.7622 190.612 95.4613C191.897 93.3 193.87 92.4142 194.577 92.135C194.866 92.794 195.687 94.9005 194.984 97.4163C193.956 101.093 190.55 102.508 190.131 102.673V102.674Z" fill="black" stroke="black" stroke-width="0.0818679"/>
<path d="M222.83 137.389V130.141C222.326 131.147 219.744 136.049 214.122 137.615C212.786 137.987 208.661 139.136 205.386 136.761C201.749 134.124 201.109 128.539 202.859 124.7C204.571 120.944 208.519 118.527 212.906 118.528C215.289 118.541 220.448 118.554 222.831 118.566C222.874 117.946 222.892 117.079 222.767 116.058C222.721 115.683 222.307 112.532 220.66 110.339C218.239 107.116 212.471 105.054 208.144 107.635C204.657 109.715 203.93 113.723 203.808 114.468H203.405C203.372 113.149 203.339 111.83 203.306 110.511C204.194 109.267 206.876 105.869 211.537 104.792C216.618 103.618 223.035 105.435 225.512 110.039C226.381 111.652 226.569 113.244 226.593 114.312C226.708 119.399 226.542 121.65 226.591 129.114C226.616 132.844 226.838 135.243 228.564 136.561C229.27 137.099 230.031 137.308 230.581 137.4C230.089 137.399 228.39 137.396 227.898 137.395C226.434 137.392 224.293 137.389 222.829 137.387L222.83 137.389ZM222.804 119.725C218.422 119.288 215.129 120.149 213.288 120.794C211.096 121.562 209.049 122.312 207.647 124.397C207.291 124.926 205.789 127.16 206.5 129.869C207.043 131.939 208.563 133.08 209.066 133.421C211.511 135.082 214.329 134.448 215.52 134.18C219.814 133.213 222.142 129.782 222.759 128.804C222.774 125.778 222.789 122.752 222.805 119.726L222.804 119.725Z" fill="black" stroke="black" stroke-width="0.0818679"/>
<path d="M237.04 137.425V91.0321C237.42 90.8307 236.78 90.4026 237.171 90.1488C239.302 88.7669 240.771 87.0656 241.764 85.5969V137.41C240.189 137.415 238.615 137.419 237.04 137.424V137.425Z" fill="black" stroke="black" stroke-width="0.0818679"/>
<path d="M57.6758 78.9037C57.6938 74.4444 57.7118 69.9842 57.7306 65.5249C57.7102 30.79 85.7606 2.32697 119.592 1.63519C154.536 0.920479 184.302 30.063 184.057 65.9547C184.045 70.265 184.033 74.5754 184.022 78.8865C169.822 77.7813 155.622 76.6761 141.422 75.5709C140.077 76.1702 137.298 77.1575 134.3 76.2479C132.727 75.7707 131.651 74.9405 130.842 74.2438C126.334 70.3666 122.365 64.003 120.902 61.5584C120.328 61.6083 119.449 61.6132 118.453 61.3136C117.809 61.1196 115.179 60.2158 114.425 57.7106C114.125 56.7135 113.9 54.7249 114.865 54.0929C116.027 53.3331 117.635 55.3741 121.541 56.0962C123.383 56.4367 123.903 56.1453 125.521 56.2779C126.541 56.3614 128.79 56.9222 134.099 60.1773" stroke="black" stroke-width="1.47198" stroke-linecap="round" stroke-linejoin="round"/>
<path d="M133.346 72.2148C132.524 71.7122 131.282 70.8477 130.064 69.4985C128.122 67.3478 127.969 65.8766 126.442 64.2925C125.505 63.3207 123.871 62.1189 120.898 61.5581" stroke="black" stroke-width="1.47198" stroke-linecap="round" stroke-linejoin="round"/>
<path d="M174.015 62.2437H144.339C144.041 62.2462 143.557 62.2134 143.009 61.9998C142.433 61.7754 142.063 61.4537 141.919 61.3293C140.484 60.0857 138.96 58.9412 137.59 57.6264C137.59 57.6264 137.23 57.2809 133.781 54.4123C127.087 48.8444 119.789 46.2075 119.789 46.2075C116.614 45.0597 111.109 43.5361 103.865 43.8783C101.912 43.9037 100.502 45.6065 100.717 47.2455C100.899 48.6447 102.242 49.8203 103.88 49.8006C107.617 49.7515 113.356 50.2255 119.45 53.1277C121.483 54.0962 123.228 55.1785 124.7 56.242" stroke="black" stroke-width="1.47198" stroke-linecap="round" stroke-linejoin="round"/>
<path d="M100.577 46.4314C100.091 46.4519 99.6044 46.4715 99.1181 46.492C97.2794 46.5845 95.9105 48.1359 95.9875 49.7667C96.071 51.5367 97.8393 53.0193 99.8189 52.6828C100.983 52.5183 102.236 52.4012 103.57 52.3603C108.02 52.2227 111.839 52.9751 114.768 53.8568" stroke="black" stroke-width="1.47198" stroke-linecap="round" stroke-linejoin="round"/>
<path d="M99.064 52.9585C98.9788 53.1124 98.5195 53.9704 98.856 54.8906C99.2154 55.8754 100.338 56.5288 101.591 56.3929C103.512 55.9377 105.924 55.5431 108.718 55.4939C110.771 55.4579 112.607 55.6151 114.169 55.8443" stroke="black" stroke-width="1.47198" stroke-linecap="round" stroke-linejoin="round"/>
<path d="M104.455 55.9814C104.369 56.1354 103.91 56.9933 104.247 57.9135C104.606 58.8984 105.728 59.5517 106.982 59.4158C109.358 59.1162 111.733 58.8165 114.108 58.5169" stroke="black" stroke-width="1.47198" stroke-linecap="round" stroke-linejoin="round"/>
<path d="M68.6953 61.9023C79.7761 63.1975 90.857 64.4926 101.937 65.7886C103.282 65.1893 106.061 64.202 109.059 65.1116C110.631 65.5889 111.708 66.419 112.517 67.1157C117.024 70.993 120.993 77.3565 122.456 79.8011C123.03 79.7512 123.909 79.7463 124.906 80.0459C125.55 80.2399 128.18 81.1438 128.934 83.6489C129.233 84.6461 129.458 86.6346 128.493 87.2667C127.332 88.0264 125.724 85.9854 121.818 85.2633C119.976 84.9228 119.456 85.2142 117.837 85.0816C115.726 84.9089 112.769 84.0976 109.259 81.1822" stroke="black" stroke-width="1.47198" stroke-linecap="round" stroke-linejoin="round"/>
<path d="M110.004 69.1433C110.825 69.646 112.068 70.5105 113.286 71.8597C115.228 74.0104 115.381 75.4815 116.908 77.0657C117.844 78.0374 119.478 79.2393 122.451 79.8001" stroke="black" stroke-width="1.47198" stroke-linecap="round" stroke-linejoin="round"/>
<path d="M57.6758 78.9036C81.0261 79.0149 98.0432 79.1082 99.0183 79.1148C99.2237 79.1164 99.7444 79.1238 100.348 79.3587C100.923 79.5831 101.294 79.9048 101.437 80.0292C102.873 81.2728 104.397 82.4173 105.767 83.7321C105.767 83.7321 106.127 84.0776 109.576 86.9463C116.27 92.5141 123.568 95.1511 123.568 95.1511C126.743 96.2989 132.248 97.8224 139.492 97.4802C141.445 97.4548 142.854 95.752 142.64 94.113C142.457 92.7139 141.115 91.5382 139.477 91.5579C132.552 91.6389 129.343 90.3667 123.907 88.2308C122.672 87.7461 120.775 86.848 118.657 85.1165" stroke="black" stroke-width="1.47198" stroke-linecap="round" stroke-linejoin="round"/>
<path d="M142.777 94.9262C143.263 94.9057 143.75 94.886 144.236 94.8656C146.075 94.7731 147.443 93.2217 147.366 91.5909C147.283 89.8209 145.515 88.3382 143.535 88.6747C142.371 88.8393 141.117 88.9563 139.784 88.9973C135.334 89.1348 131.515 88.3824 128.586 87.5007" stroke="black" stroke-width="1.47198" stroke-linecap="round" stroke-linejoin="round"/>
<path d="M144.292 88.3988C144.377 88.2448 144.837 87.3869 144.5 86.4667C144.141 85.4818 143.018 84.8285 141.765 84.9644C139.844 85.4196 137.432 85.8142 134.638 85.8633C132.585 85.8993 130.75 85.7421 129.188 85.5129" stroke="black" stroke-width="1.47198" stroke-linecap="round" stroke-linejoin="round"/>
<path d="M138.9 85.3765C138.985 85.2226 139.444 84.3646 139.108 83.4444C138.748 82.4596 137.626 81.8063 136.373 81.9422C133.997 82.2418 131.622 82.5414 129.246 82.8411" stroke="black" stroke-width="1.47198" stroke-linecap="round" stroke-linejoin="round"/>
</svg>
