<svg width="221" height="160" viewBox="0 0 221 160" fill="none" xmlns="http://www.w3.org/2000/svg">
<path d="M46.915 89.3574H46.8828C46.904 89.7652 46.915 90.1758 46.915 90.5889C46.915 103.518 36.4341 114 23.5049 114C10.5755 114 0.09375 103.518 0.09375 90.5889C0.0939747 77.6597 10.5756 67.1787 23.5049 67.1787C27.517 67.1788 31.2932 68.1882 34.5938 69.9668V45H46.915V89.3574ZM23.5029 79.5C17.3788 79.5002 12.4143 84.4648 12.4141 90.5889C12.4141 96.7132 17.3787 101.678 23.5029 101.679C29.6274 101.679 34.5928 96.7133 34.5928 90.5889C34.5925 84.4646 29.6272 79.5 23.5029 79.5Z" fill="black"/>
<path d="M115.915 45V69.9668C119.216 68.1882 122.992 67.1788 127.004 67.1787C139.933 67.1787 150.415 77.6605 150.415 90.5898C150.415 103.519 139.933 114 127.004 114C114.075 114 103.594 103.519 103.594 90.5898C103.594 90.1765 103.605 89.7655 103.626 89.3574H103.594V45H115.915ZM127.006 79.5C120.881 79.5 115.916 84.4654 115.916 90.5898C115.916 96.7141 120.882 101.679 127.006 101.679C133.13 101.678 138.094 96.7139 138.095 90.5898C138.095 84.4655 133.13 79.5002 127.006 79.5Z" fill="black"/>
<rect width="12.3214" height="44.3571" transform="matrix(-1 0 0 1 219.414 69.6428)" fill="black"/>
<rect width="16.0179" height="16.0179" rx="8.00893" transform="matrix(-1 0 0 1 220.648 45)" fill="black"/>
<path d="M75.2549 67.1785C88.1841 67.1787 98.665 77.6604 98.665 90.5896C98.665 91.0027 98.654 91.4132 98.6328 91.821H98.665V114H86.3438V111.211C83.0431 112.989 79.2671 114 75.2549 114C62.3256 114 51.844 103.519 51.8438 90.5896C51.8438 77.6602 62.3255 67.1785 75.2549 67.1785ZM75.2529 79.4998C69.1287 79.5 64.1641 84.4653 64.1641 90.5896C64.1643 96.7137 69.1288 101.678 75.2529 101.678C81.3772 101.678 86.3425 96.7139 86.3428 90.5896C86.3428 84.4652 81.3774 79.4998 75.2529 79.4998Z" fill="black"/>
<path d="M178.754 67.1785C191.683 67.1785 202.165 77.6602 202.165 90.5896C202.165 92.7218 201.878 94.7868 201.344 96.7498H169.535C171.525 99.7213 174.911 101.678 178.756 101.678C180.985 101.678 183.059 101.018 184.798 99.8855L198.151 103.7C193.942 109.915 186.825 114 178.754 114C165.825 114 155.344 103.519 155.344 90.5896C155.344 77.6604 165.825 67.1787 178.754 67.1785ZM178.756 79.4998C174.402 79.4998 170.637 82.0101 168.822 85.6609H188.689C186.875 82.01 183.109 79.4999 178.756 79.4998Z" fill="black"/>
</svg>
