<svg width="306" height="160" viewBox="0 0 306 160" fill="none" xmlns="http://www.w3.org/2000/svg">
<line x1="2.75549" y1="100.552" x2="2.75549" y2="59.8577" stroke="black" stroke-width="5.51099"/>
<line x1="73.3842" y1="100.552" x2="73.3842" y2="59.8583" stroke="black" stroke-width="5.51099"/>
<path d="M120.541 60.9701C129.995 60.9701 138.421 63.3102 144.394 66.9486C150.415 70.6166 153.546 75.3119 153.546 80.0004C153.546 84.6887 150.415 89.3832 144.394 93.0511C138.421 96.6896 129.995 99.0306 120.541 99.0306C111.086 99.0306 102.66 96.6896 96.687 93.0511C90.666 89.3832 87.5349 84.6888 87.5347 80.0004C87.5347 75.3118 90.6659 70.6167 96.687 66.9486C102.66 63.3102 111.086 60.9701 120.541 60.9701Z" stroke="black" stroke-width="5.51099"/>
<path d="M161.638 60.0344C161.638 70.5457 181.593 88.0154 196.99 97.7781C212.011 88.0154 232.01 70.5457 232.01 59.8584" stroke="black" stroke-width="5.51099" stroke-linejoin="round"/>
<path d="M231.928 100.48C231.928 89.9682 251.883 72.4985 267.28 62.7358C282.301 72.4985 302.3 89.9682 302.3 100.656" stroke="black" stroke-width="5.51099" stroke-linejoin="round"/>
<path d="M2.97266 60.0344C2.97266 70.5457 22.9279 88.0154 38.3245 97.7781C53.3457 88.0154 73.3445 70.5457 73.3445 59.8584" stroke="black" stroke-width="5.51099" stroke-linejoin="round"/>
</svg>
