<svg width="23" height="23" viewBox="0 0 23 23" fill="none" xmlns="http://www.w3.org/2000/svg">
<path d="M0 19.2803V14.835C6.39065e-05 14.0066 0.671612 13.335 1.5 13.335C2.32839 13.335 2.99994 14.0066 3 14.835V19.2803C3.00004 19.4718 3.07646 19.6556 3.21191 19.791C3.3474 19.9264 3.53111 20.0029 3.72266 20.0029H19.2803C19.4718 20.0029 19.6556 19.9265 19.791 19.791C19.9265 19.6556 20.0029 19.4718 20.0029 19.2803V14.835C20.003 14.0066 20.6745 13.335 21.5029 13.335C22.3312 13.3351 23.0029 14.0067 23.0029 14.835V19.2803C23.0029 20.2675 22.6102 21.214 21.9121 21.9121C21.214 22.6102 20.2675 23.0029 19.2803 23.0029H3.72266C2.73538 23.0029 1.78795 22.6102 1.08984 21.9121C0.391985 21.2141 4.44415e-05 20.2673 0 19.2803ZM10.001 1.5C10.001 0.671684 10.6727 0.000179847 11.501 0C12.3294 0 13.001 0.671573 13.001 1.5V11.2139L15.9971 8.21777C16.5828 7.63231 17.5324 7.6323 18.1182 8.21777C18.704 8.80356 18.704 9.75406 18.1182 10.3398L12.5615 15.8955C11.9757 16.4812 11.0262 16.4813 10.4404 15.8955L4.88477 10.3398C4.29898 9.75406 4.29898 8.80356 4.88477 8.21777C5.47055 7.6324 6.42019 7.63221 7.00586 8.21777L10.001 11.2129V1.5Z" fill="white"/>
</svg>
