<svg width="155" height="35" viewBox="0 0 155 35" fill="none" xmlns="http://www.w3.org/2000/svg">
<path d="M0.603512 34.894L0 32.3428C0.676666 32.3428 1.2436 32.1508 1.70081 31.7667C2.15801 31.3826 2.38662 30.6877 2.38662 29.6818V9.87566H5.34932V29.7367C5.34932 31.3826 4.89211 32.6537 3.9777 33.5498C3.08157 34.4459 1.95684 34.894 0.603512 34.894Z" fill="black"/>
<path d="M16.5398 26.6643C14.9488 26.6643 13.4948 26.2802 12.1781 25.5121C10.8613 24.744 9.80976 23.7107 9.02337 22.4123C8.25526 21.1138 7.87121 19.6782 7.87121 18.1054C7.87121 16.5143 8.25526 15.0787 9.02337 13.7985C9.80976 12.5 10.8613 11.4667 12.1781 10.6986C13.4948 9.93052 14.9488 9.54647 16.5398 9.54647C18.1492 9.54647 19.6031 9.93052 20.9016 10.6986C22.2183 11.4667 23.2608 12.5 24.0289 13.7985C24.8153 15.0787 25.2085 16.5143 25.2085 18.1054C25.2085 19.6782 24.8153 21.1138 24.0289 22.4123C23.2608 23.7107 22.2183 24.744 20.9016 25.5121C19.6031 26.2802 18.1492 26.6643 16.5398 26.6643ZM16.5398 23.8662C17.6006 23.8662 18.5607 23.6101 19.4202 23.0981C20.2798 22.5677 20.9656 21.8728 21.4777 21.0132C21.9897 20.1354 22.2458 19.1661 22.2458 18.1054C22.2458 17.0447 21.9897 16.0845 21.4777 15.225C20.9656 14.3471 20.2798 13.6522 19.4202 13.1401C18.5607 12.6098 17.6006 12.3446 16.5398 12.3446C15.4791 12.3446 14.519 12.6098 13.6594 13.1401C12.7999 13.6522 12.1141 14.3471 11.602 15.225C11.0899 16.0845 10.8339 17.0447 10.8339 18.1054C10.8339 19.1661 11.0899 20.1354 11.602 21.0132C12.1141 21.8728 12.7999 22.5677 13.6594 23.0981C14.519 23.6101 15.4791 23.8662 16.5398 23.8662Z" fill="black"/>
<path d="M34.7848 26.5545C33.2851 26.5545 31.9135 26.1796 30.6699 25.4298C29.4263 24.6617 28.4296 23.6376 27.6798 22.3574C26.9483 21.0772 26.5825 19.6599 26.5825 18.1054C26.5825 16.5509 26.9483 15.1335 27.6798 13.8534C28.4296 12.5732 29.4263 11.5582 30.6699 10.8084C31.9135 10.0403 33.2851 9.6562 34.7848 9.6562C35.9187 9.6562 37.0068 9.81022 37.9944 10.2309C39.0002 10.6515 39.9653 11.227 40.6847 11.8911C42.2343 13.3214 43.0644 14.9348 43.3162 17.3698C43.3162 21.6311 43.3162 26.3351 43.3162 26.3351H40.573V24.1679C39.8415 24.8995 38.9728 25.4847 37.9669 25.9236C36.9794 26.3442 35.9187 26.5545 34.7848 26.5545ZM35.1688 23.8662C36.2113 23.8662 37.1531 23.6101 37.9944 23.0981C38.8539 22.5677 39.5306 21.8728 40.0244 21.0132C40.5364 20.1354 40.7925 19.1661 40.7925 18.1054C40.7925 17.0447 40.5364 16.0845 40.0244 15.225C39.5306 14.3471 38.8539 13.6522 37.9944 13.1401C37.1531 12.6098 36.2113 12.3446 35.1688 12.3446C34.1264 12.3446 33.1754 12.6098 32.3159 13.1401C31.4746 13.6522 30.7979 14.3471 30.2859 15.225C29.7921 16.0845 29.5452 17.0447 29.5452 18.1054C29.5452 19.1661 29.7921 20.1354 30.2859 21.0132C30.7979 21.8728 31.4746 22.5677 32.3159 23.0981C33.1754 23.6101 34.1264 23.8662 35.1688 23.8662Z" fill="black"/>
<path d="M54.5025 26.6643C52.9114 26.6643 51.4575 26.2802 50.1407 25.5121C48.824 24.744 47.7724 23.7107 46.986 22.4123C46.2179 21.1138 45.8339 19.6782 45.8339 18.1054C45.8339 16.5143 46.2179 15.0787 46.986 13.7985C47.7724 12.5 48.824 11.4667 50.1407 10.6986C51.4575 9.93052 52.9114 9.54647 54.5025 9.54647C56.1119 9.54647 57.5658 9.93052 58.8642 10.6986C60.181 11.4667 61.2234 12.5 61.9915 13.7985C62.7779 15.0787 63.1711 16.5143 63.1711 18.1054C63.1711 19.6782 62.7779 21.1138 61.9915 22.4123C61.2234 23.7107 60.181 24.744 58.8642 25.5121C57.5658 26.2802 56.1119 26.6643 54.5025 26.6643ZM54.5025 23.8662C55.5632 23.8662 56.5233 23.6101 57.3829 23.0981C58.2424 22.5677 58.9282 21.8728 59.4403 21.0132C59.9524 20.1354 60.2084 19.1661 60.2084 18.1054C60.2084 17.0447 59.9524 16.0845 59.4403 15.225C58.9282 14.3471 58.2424 13.6522 57.3829 13.1401C56.5233 12.6098 55.5632 12.3446 54.5025 12.3446C53.4418 12.3446 52.4816 12.6098 51.6221 13.1401C50.7625 13.6522 50.0767 14.3471 49.5647 15.225C49.0526 16.0845 48.7966 17.0447 48.7966 18.1054C48.7966 19.1661 49.0526 20.1354 49.5647 21.0132C50.0767 21.8728 50.7625 22.5677 51.6221 23.0981C52.4816 23.6101 53.4418 23.8662 54.5025 23.8662Z" fill="black"/>
<path d="M74.2288 26.5545C73.0949 26.5545 72.0342 26.3442 71.0466 25.9236C70.0591 25.4847 69.1904 24.8995 68.4405 24.1679V26.3351H65.6973V0H68.66V11.8234C69.3915 11.1467 70.2328 10.6163 71.1838 10.2323C72.1348 9.84823 73.1498 9.6562 74.2288 9.6562C75.7467 9.6562 77.1183 10.0403 78.3436 10.8084C79.5872 11.5582 80.5748 12.5732 81.3063 13.8534C82.0562 15.1335 82.4311 16.5509 82.4311 18.1054C82.4311 19.6599 82.0562 21.0772 81.3063 22.3574C80.5748 23.6376 79.5872 24.6617 78.3436 25.4298C77.1183 26.1796 75.7467 26.5545 74.2288 26.5545ZM73.8447 23.8662C74.8872 23.8662 75.829 23.6101 76.6703 23.0981C77.5298 22.5677 78.2065 21.8728 78.7003 21.0132C79.2123 20.1354 79.4684 19.1661 79.4684 18.1054C79.4684 17.0447 79.2123 16.0845 78.7003 15.225C78.2065 14.3471 77.5298 13.6522 76.6703 13.1401C75.829 12.6098 74.8872 12.3446 73.8447 12.3446C72.8023 12.3446 71.8513 12.6098 70.9918 13.1401C70.1505 13.6522 69.4738 14.3471 68.9618 15.225C68.468 16.0845 68.2211 17.0447 68.2211 18.1054C68.2211 19.1661 68.468 20.1354 68.9618 21.0132C69.4738 21.8728 70.1505 22.5677 70.9918 23.0981C71.8513 23.6101 72.8023 23.8662 73.8447 23.8662Z" fill="black"/>
<path d="M108.452 26.6643C107.611 26.6643 106.706 26.5088 105.736 26.1979C104.785 25.8687 103.962 25.3292 103.267 24.5794L104.09 21.3424C104.602 22.2019 105.261 22.8878 106.065 23.3998C106.87 23.8936 107.73 24.1405 108.644 24.1405C109.522 24.1405 110.18 23.9302 110.619 23.5096C111.058 23.0706 111.278 22.5403 111.278 21.9185C111.278 21.2052 111.04 20.684 110.564 20.3548C110.107 20.0256 109.696 19.797 109.33 19.669L107.108 18.8186C106.706 18.654 106.221 18.4163 105.654 18.1054C105.087 17.7762 104.593 17.3098 104.173 16.7063C103.752 16.1028 103.542 15.3164 103.542 14.3471C103.542 13.4693 103.752 12.6646 104.173 11.9331C104.593 11.2016 105.188 10.6255 105.956 10.2048C106.724 9.76593 107.629 9.54647 108.672 9.54647C109.494 9.54647 110.354 9.69277 111.25 9.98539C112.146 10.278 112.905 10.7718 113.527 11.4667L112.704 14.7038C112.265 13.8991 111.671 13.259 110.921 12.7835C110.171 12.308 109.394 12.0702 108.589 12.0702C107.839 12.0702 107.245 12.2806 106.806 12.7012C106.385 13.1218 106.175 13.6065 106.175 14.1551C106.175 14.594 106.321 14.9872 106.614 15.3347C106.907 15.6822 107.346 15.9656 107.931 16.1851L110.153 17.0355C110.555 17.1818 111.049 17.4196 111.634 17.7488C112.238 18.0779 112.768 18.5534 113.225 19.1752C113.682 19.797 113.911 20.6383 113.911 21.699C113.911 23.1804 113.39 24.3782 112.347 25.2927C111.323 26.2071 110.025 26.6643 108.452 26.6643Z" fill="black"/>
<path d="M118.544 26.3351V12.3446H114.813V9.87566H118.626V4.38918H121.424V9.87566H125.511V12.3446H121.506V26.3351H118.544Z" fill="black"/>
<path d="M134.094 26.6643C132.503 26.6643 131.049 26.2802 129.732 25.5121C128.416 24.744 127.364 23.7107 126.578 22.4123C125.81 21.1138 125.425 19.6782 125.425 18.1054C125.425 16.5143 125.81 15.0787 126.578 13.7985C127.364 12.5 128.416 11.4667 129.732 10.6986C131.049 9.93052 132.503 9.54647 134.094 9.54647C135.704 9.54647 137.157 9.93052 138.456 10.6986C139.773 11.4667 140.815 12.5 141.583 13.7985C142.37 15.0787 142.763 16.5143 142.763 18.1054C142.763 19.6782 142.37 21.1138 141.583 22.4123C140.815 23.7107 139.773 24.744 138.456 25.5121C137.157 26.2802 135.704 26.6643 134.094 26.6643ZM134.094 23.8662C135.155 23.8662 136.115 23.6101 136.975 23.0981C137.834 22.5677 138.52 21.8728 139.032 21.0132C139.544 20.1354 139.8 19.1661 139.8 18.1054C139.8 17.0447 139.544 16.0845 139.032 15.225C138.52 14.3471 137.834 13.6522 136.975 13.1401C136.115 12.6098 135.155 12.3446 134.094 12.3446C133.033 12.3446 132.073 12.6098 131.214 13.1401C130.354 13.6522 129.668 14.3471 129.156 15.225C128.644 16.0845 128.388 17.0447 128.388 18.1054C128.388 19.1661 128.644 20.1354 129.156 21.0132C129.668 21.8728 130.354 22.5677 131.214 23.0981C132.073 23.6101 133.033 23.8662 134.094 23.8662Z" fill="black"/>
<path d="M149.541 26.6643C148.7 26.6643 147.794 26.5088 146.825 26.1979C145.874 25.8687 145.051 25.3292 144.356 24.5794L145.179 21.3424C145.691 22.2019 146.35 22.8878 147.154 23.3998C147.959 23.8936 148.819 24.1405 149.733 24.1405C150.611 24.1405 151.269 23.9302 151.708 23.5096C152.147 23.0706 152.366 22.5403 152.366 21.9185C152.366 21.2052 152.129 20.684 151.653 20.3548C151.196 20.0256 150.785 19.797 150.419 19.669L148.197 18.8186C147.794 18.654 147.31 18.4163 146.743 18.1054C146.176 17.7762 145.682 17.3098 145.262 16.7063C144.841 16.1028 144.631 15.3164 144.631 14.3471C144.631 13.4693 144.841 12.6646 145.262 11.9331C145.682 11.2016 146.276 10.6255 147.045 10.2048C147.813 9.76593 148.718 9.54647 149.76 9.54647C150.583 9.54647 151.443 9.69277 152.339 9.98539C153.235 10.278 153.994 10.7718 154.616 11.4667L153.793 14.7038C153.354 13.8991 152.76 13.259 152.01 12.7835C151.26 12.308 150.483 12.0702 149.678 12.0702C148.928 12.0702 148.334 12.2806 147.895 12.7012C147.474 13.1218 147.264 13.6065 147.264 14.1551C147.264 14.594 147.41 14.9872 147.703 15.3347C147.996 15.6822 148.435 15.9656 149.02 16.1851L151.242 17.0355C151.644 17.1818 152.138 17.4196 152.723 17.7488C153.327 18.0779 153.857 18.5534 154.314 19.1752C154.771 19.797 155 20.6383 155 21.699C155 23.1804 154.479 24.3782 153.436 25.2927C152.412 26.2071 151.114 26.6643 149.541 26.6643Z" fill="black"/>
<path d="M92.0529 26.5204C90.5532 26.5204 89.1816 26.1455 87.938 25.3957C86.6944 24.6276 85.6977 23.6034 84.9479 22.3233C84.2164 21.0431 83.8506 19.6257 83.8506 18.0712C83.8506 16.5167 84.2164 15.0994 84.9479 13.8192C85.6977 12.539 86.6944 11.524 87.938 10.7742C89.1816 10.0061 90.5532 9.62207 92.0529 9.62207C93.1867 9.62207 94.2749 9.77609 95.2625 10.1967C96.2683 10.6174 97.2334 11.1929 97.9528 11.857C99.5024 13.2873 100.333 14.9007 100.584 17.3357C100.584 21.597 100.584 26.301 100.584 26.301H97.8411V24.1338C97.1096 24.8653 96.2409 25.4506 95.235 25.8895C94.2475 26.3101 93.1867 26.5204 92.0529 26.5204ZM92.4369 23.832C93.4794 23.832 94.4212 23.576 95.2625 23.0639C96.122 22.5336 96.7987 21.8386 97.2925 20.9791C97.8045 20.1012 98.0606 19.132 98.0606 18.0712C98.0606 17.0105 97.8045 16.0504 97.2925 15.1908C96.7987 14.313 96.122 13.6181 95.2625 13.106C94.4212 12.5756 93.4794 12.3104 92.4369 12.3104C91.3945 12.3104 90.4435 12.5756 89.584 13.106C88.7427 13.6181 88.066 14.313 87.554 15.1908C87.0602 16.0504 86.8133 17.0105 86.8133 18.0712C86.8133 19.132 87.0602 20.1012 87.554 20.9791C88.066 21.8386 88.7427 22.5336 89.584 23.0639C90.4435 23.576 91.3945 23.832 92.4369 23.832Z" fill="black"/>
<line x1="31.7197" y1="6.68891" x2="39.4675" y2="6.68891" stroke="black" stroke-width="2.32432"/>
</svg>
