<svg width="123" height="172" viewBox="0 0 123 172" fill="none" xmlns="http://www.w3.org/2000/svg">
<path d="M3.5 171.263L0.463525 158.427C3.86806 158.427 6.7205 157.461 9.02086 155.529C11.3212 153.596 12.4714 150.1 12.4714 145.039V37.1996H27.4635L27.3777 145.315C27.3777 153.596 25.0774 159.991 20.4767 164.5C15.968 169.009 10.3091 171.263 3.5 171.263Z" fill="black"/>
<path d="M81.7316 134.105C76.0267 134.105 70.6898 133.047 65.7211 130.93C60.7523 128.722 56.3816 125.778 52.609 122.097V133.001H38.8068V0.5H53.7132V59.9873C57.3938 56.5828 61.6264 53.9144 66.4112 51.9821C71.1959 50.0498 76.3027 49.0836 81.7316 49.0836C89.3688 49.0836 96.2698 51.0159 102.435 54.8805C108.692 58.6531 113.661 63.7599 117.341 70.2009C121.114 76.6419 123 83.773 123 91.5943C123 99.4155 121.114 106.547 117.341 112.988C113.661 119.429 108.692 124.581 102.435 128.446C96.2698 132.219 89.3688 134.105 81.7316 134.105ZM79.7993 120.579C85.0441 120.579 89.7828 119.291 94.0155 116.714C98.3402 114.046 101.745 110.549 104.229 106.225C106.806 101.808 108.094 96.9311 108.094 91.5943C108.094 86.2574 106.806 81.4267 104.229 77.102C101.745 72.6853 98.3402 69.1888 94.0155 66.6124C89.7828 63.9439 85.0441 62.6097 79.7993 62.6097C74.5545 62.6097 69.7697 63.9439 65.445 66.6124C61.2124 69.1888 57.8078 72.6853 55.2314 77.102C52.747 81.4267 51.5048 86.2574 51.5048 91.5943C51.5048 96.9311 52.747 101.808 55.2314 106.225C57.8078 110.549 61.2124 114.046 65.445 116.714C69.7697 119.291 74.5545 120.579 79.7993 120.579Z" fill="black"/>
</svg>
