<svg width="48" height="45" viewBox="0 0 48 45" fill="none" xmlns="http://www.w3.org/2000/svg">
<path fill-rule="evenodd" clip-rule="evenodd" d="M23.5711 0C10.8254 0 0.501953 10.3234 0.501953 23.0691C0.501953 33.2772 7.10548 41.8993 16.2755 44.9559C17.4289 45.1578 17.8615 44.4657 17.8615 43.8601C17.8615 43.3123 17.8326 41.4956 17.8326 39.5635C12.0365 40.6305 10.537 38.1505 10.0756 36.8529C9.81611 36.1897 8.69149 34.1423 7.71105 33.5944C6.90363 33.1618 5.75018 32.0949 7.68221 32.0661C9.49891 32.0372 10.7965 33.7386 11.2291 34.4306C13.3053 37.9198 16.6215 36.9394 17.948 36.3339C18.1498 34.8344 18.7554 33.8251 19.4186 33.2484C14.2857 32.6716 8.92218 30.6819 8.92218 21.858C8.92218 19.3492 9.81611 17.273 11.2868 15.6582C11.0561 15.0814 10.2487 12.7168 11.5175 9.54484C11.5175 9.54484 13.4495 8.93928 17.8615 11.9094C19.707 11.3904 21.6679 11.1308 23.6287 11.1308C25.5896 11.1308 27.5505 11.3904 29.396 11.9094C33.808 8.91044 35.74 9.54484 35.74 9.54484C37.0088 12.7168 36.2014 15.0814 35.9707 15.6582C37.4414 17.273 38.3353 19.3204 38.3353 21.858C38.3353 30.7108 32.9429 32.6716 27.81 33.2484C28.6463 33.9693 29.3672 35.3534 29.3672 37.5161C29.3672 40.6016 29.3383 43.0816 29.3383 43.8601C29.3383 44.4657 29.7709 45.1866 30.9243 44.9559C40.0366 41.8993 46.6402 33.2484 46.6402 23.0691C46.6402 10.3234 36.3167 0 23.5711 0Z" fill="#818181"/>
</svg>
