<svg width="126" height="160" viewBox="0 0 126 160" fill="none" xmlns="http://www.w3.org/2000/svg">
<path d="M95.9833 66.6235C110.709 66.6235 122.647 78.5613 122.647 93.2874C122.647 102.508 117.967 110.633 110.852 115.421C108.831 116.782 107.688 119.249 108.417 121.575L110.001 126.629C111.704 132.064 104.844 136.026 100.987 131.834L93.7999 124.022C91.4131 121.428 88.0489 119.951 84.5237 119.951H49.7107C34.9847 119.951 23.0469 108.013 23.0469 93.2874C23.0469 78.5613 34.9847 66.6235 49.7107 66.6235L95.9833 66.6235Z" stroke="black" stroke-width="6.55651" stroke-linecap="round"/>
<line x1="45.1722" y1="35.6307" x2="45.1722" y2="97.5263" stroke="black" stroke-width="27.4538" stroke-linecap="round"/>
<line x1="75.6208" y1="66.5789" x2="13.7252" y2="66.5789" stroke="black" stroke-width="27.4538" stroke-linecap="round"/>
<path d="M58.9034 45.7022C58.902 45.5438 58.902 45.3822 58.9034 45.2173V45.7022C58.9506 51.2323 60.668 52.8286 66.2896 52.8513H66.5366C66.4534 52.8516 66.3711 52.8516 66.2896 52.8513H58.9034V45.7022Z" fill="black"/>
<path d="M58.9034 87.3646C58.902 87.5231 58.902 87.6847 58.9034 87.8496V87.3646C58.9506 81.8345 60.668 80.2382 66.2896 80.2156H66.5366C66.4534 80.2153 66.3711 80.2153 66.2896 80.2156H58.9034V87.3646Z" fill="black"/>
<path d="M31.5576 45.7022C31.5589 45.5438 31.5589 45.3822 31.5576 45.2173V45.7022C31.5104 51.2323 29.7929 52.8286 24.1713 52.8513H23.9243C24.0075 52.8516 24.0898 52.8516 24.1713 52.8513H31.5576V45.7022Z" fill="black"/>
<path d="M31.5576 87.3646C31.5589 87.5231 31.5589 87.6847 31.5576 87.8496V87.3646C31.5104 81.8345 29.7929 80.2382 24.1713 80.2156H23.9243C24.0075 80.2153 24.0898 80.2153 24.1713 80.2156H31.5576V87.3646Z" fill="black"/>
</svg>
