<svg width="226" height="160" viewBox="0 0 226 160" fill="none" xmlns="http://www.w3.org/2000/svg">
<path d="M224.674 48.4727C224.674 48.5543 224.643 48.5951 224.581 48.5951C223.351 53.6576 221.937 58.8017 220.338 64.0275C218.801 69.1716 217.694 74.3973 217.017 79.7047C217.694 84.6039 218.739 89.6663 220.154 94.8921C221.568 100.118 222.706 105.099 223.567 109.834C223.259 109.753 222.982 109.712 222.736 109.712C222.491 109.712 222.214 109.712 221.906 109.712C221.23 109.712 220.492 109.753 219.692 109.834C218.893 109.834 218.124 109.834 217.386 109.834C217.14 109.834 216.648 109.834 215.911 109.834C215.234 109.834 214.496 109.834 213.697 109.834C212.959 109.753 212.221 109.712 211.483 109.712C210.806 109.63 210.376 109.549 210.191 109.467H210.099C209.607 108.079 209.177 106.568 208.808 104.935C208.5 103.221 208.193 101.506 207.885 99.7912C207.578 98.0765 207.24 96.4027 206.871 94.7696C206.563 93.0549 206.163 91.5035 205.672 90.1154V89.9929C204.565 93.259 203.734 96.6884 203.181 100.281C202.628 103.792 201.828 107.017 200.783 109.957C200.537 109.957 200.106 109.957 199.491 109.957C198.876 109.957 198.2 109.957 197.462 109.957C196.724 110.039 196.017 110.079 195.34 110.079C194.725 110.079 194.295 110.079 194.049 110.079C193.065 110.079 191.897 110.039 190.544 109.957C189.252 109.957 188.207 109.753 187.407 109.345C187.838 107.222 188.361 104.935 188.976 102.486C189.652 99.9545 190.328 97.4233 191.005 94.8921C191.681 92.2792 192.327 89.6663 192.942 87.0535C193.557 84.4406 194.08 81.9502 194.51 79.5823C193.772 74.5198 192.635 69.3757 191.097 64.1499C189.621 58.9242 188.176 53.8617 186.762 48.9626C189.529 48.7176 191.681 48.5951 193.219 48.5951C193.772 48.5951 194.479 48.5951 195.34 48.5951C196.263 48.5951 197.124 48.5951 197.923 48.5951C198.784 48.5951 199.522 48.636 200.137 48.7176C200.752 48.7993 201.09 48.8809 201.152 48.9626C201.398 50.1874 201.705 51.7796 202.074 53.7392C202.505 55.6172 202.904 57.5769 203.273 59.6182C203.704 61.5779 204.103 63.4967 204.472 65.3747C204.841 67.2527 205.18 68.7225 205.487 69.784C205.856 68.6408 206.225 67.1711 206.594 65.3747C207.024 63.4967 207.424 61.5371 207.793 59.4957C208.224 57.4544 208.593 55.4948 208.9 53.6168C209.269 51.6571 209.607 50.0649 209.915 48.8401C210.468 48.7584 211.298 48.7176 212.405 48.7176C213.574 48.636 214.834 48.5951 216.187 48.5951C217.602 48.5135 219.047 48.4727 220.523 48.4727C221.999 48.4727 223.351 48.4727 224.581 48.4727H224.674Z" fill="black"/>
<path d="M162.575 70.0444C161.374 69.9906 160.501 69.9098 159.955 69.8021V71.2559C160.01 72.8711 160.064 74.1902 160.119 75.2132C160.228 76.2362 160.583 77.2323 161.183 78.2015C161.838 79.4398 162.766 80.3551 163.967 80.9474C165.168 81.5397 166.342 81.7281 167.488 81.5127C168.634 81.2974 169.589 80.6513 170.353 79.5744C171.172 78.4438 171.527 76.7746 171.418 74.5671C171.964 74.621 172.7 74.6479 173.628 74.6479C174.556 74.5941 175.511 74.5402 176.494 74.4864C177.531 74.4325 178.514 74.4325 179.441 74.4864C180.369 74.4864 181.134 74.5671 181.734 74.7287C181.625 76.1285 181.516 77.5015 181.406 78.8476C181.297 80.1936 181.161 81.4589 180.997 82.6434C180.833 83.7741 180.615 84.7702 180.342 85.6316C180.124 86.4393 179.824 87.0046 179.441 87.3277C178.514 88.6199 177.313 89.5352 175.839 90.0736C174.365 90.612 172.755 90.9351 171.008 91.0428C169.262 91.1504 167.46 91.1504 165.605 91.0428C163.803 90.9351 162.139 90.8812 160.61 90.8812C159.082 90.6659 157.663 90.1813 156.353 89.4275C154.879 88.4045 153.651 87.0854 152.668 85.4701C151.686 83.801 150.895 81.9973 150.294 80.059C149.694 78.0669 149.284 75.967 149.066 73.7595C148.848 71.552 148.793 69.3445 148.902 67.137C149.066 65.1448 149.23 63.2334 149.393 61.4028C149.612 59.5183 150.048 57.6877 150.703 55.9109C151.413 54.3495 152.505 53.0304 153.978 51.9535C155.452 50.8229 157.117 49.9883 158.973 49.4499C160.829 48.8576 162.794 48.5346 164.868 48.4807C166.942 48.4269 168.962 48.6423 170.927 49.1268C173.437 49.5576 175.457 50.419 176.985 51.7112C178.514 53.0035 179.66 54.5649 180.424 56.3955C181.243 58.2261 181.734 60.2452 181.898 62.4527C182.061 64.6602 182.061 66.8947 181.898 69.156C181.516 69.2637 180.779 69.3714 179.687 69.4791C178.65 69.5868 177.395 69.6944 175.921 69.8021C174.502 69.9098 172.973 69.9906 171.336 70.0444C169.698 70.0983 168.116 70.1252 166.587 70.1252C165.113 70.1252 163.776 70.0983 162.575 70.0444ZM172.155 59.4645C171.609 58.4953 170.845 57.7685 169.862 57.2839C169.425 57.0147 168.989 56.8262 168.552 56.7185C168.115 56.557 167.597 56.4763 166.997 56.4763C165.687 56.4763 164.622 56.6109 163.803 56.8801C162.985 57.1493 162.33 57.5262 161.838 58.0108C161.347 58.4953 160.965 59.0607 160.692 59.7068C160.474 60.3529 160.31 61.0259 160.201 61.7258C160.092 62.3181 160.037 62.7488 160.037 63.018C160.092 63.2334 160.365 63.3949 160.856 63.5026C161.347 63.5565 162.111 63.5834 163.148 63.5834C164.24 63.5295 165.823 63.5026 167.897 63.5026C169.316 63.5026 170.381 63.5295 171.09 63.5834C171.8 63.6372 172.291 63.6641 172.564 63.6641C172.892 63.6103 173.055 63.5295 173.055 63.4219C173.055 63.2603 173.055 62.9642 173.055 62.5335C173.055 61.4566 172.755 60.4336 172.155 59.4645Z" fill="black"/>
<path d="M180.307 100.007C180.307 100.623 180.411 101.177 180.619 101.67C181.034 103.888 181.242 105.582 181.242 106.753C181.242 107.862 181.391 106.873 180.768 107.428C180.352 107.921 179.521 108.198 178.274 108.259C177.027 108.259 175.26 108.259 172.973 108.259C170.687 108.198 167.673 108.198 163.932 108.259C160.398 108.321 156.899 108.383 154.312 108.444C151.786 108.506 148.274 108.537 143.777 108.537C139.341 108.537 135.161 108.475 127.707 108.352V106.688C127.892 102.068 127.585 99.7295 127.708 96.0331C127.831 92.2751 127.893 88.7943 127.893 85.5907C127.954 82.3256 127.985 79.1836 127.985 76.1649C127.985 73.1462 127.954 70.0658 127.893 66.9239C127.831 63.7819 127.77 60.4552 127.708 56.9436C127.646 53.3704 127.585 53.1442 127.523 48.8317C128.14 48.5853 129.094 48.4004 130.388 48.2772C131.682 48.0924 131.303 48 132.782 48C134.26 48 135.708 48.0924 137.125 48.2772C138.542 48.462 139.681 48.7393 140.544 49.1089C140.421 53.1134 140.359 53.5244 140.359 57.7753C140.42 61.9645 140.482 66.1846 140.544 70.4355C140.605 74.6863 140.636 78.9372 140.636 83.1881C140.698 87.3773 140.698 91.4434 140.636 95.3862V95.4787C141.067 95.3554 141.868 95.3246 143.039 95.3862C144.271 95.3862 145.688 95.417 147.29 95.4787C148.891 95.5403 150.586 95.6327 152.372 95.7559C154.22 95.8175 152.143 95.8791 157.547 95.9407C163.159 96.0023 168.044 96.0639 172.201 96.1255C176.565 96.1255 179.579 96.0947 181.242 96.0331C181.242 96.7108 181.138 97.3885 180.93 98.0661C180.722 98.6822 180.515 99.3291 180.307 100.007Z" fill="black"/>
<path d="M105.08 77.8708V97.4454V109.478C103.97 109.358 102.86 109.328 101.75 109.388C100.64 109.448 99.5302 109.537 98.4203 109.657C97.3104 109.717 96.2332 109.777 95.1886 109.837C94.2093 109.897 93.2953 109.867 92.4466 109.747C92.316 109.029 92.2181 107.861 92.1528 106.245C92.1528 104.569 92.1201 102.713 92.0548 100.678C92.0548 98.5828 92.0548 96.3979 92.0548 94.1231C92.0548 91.8484 92.0548 89.6635 92.0548 87.5683C92.1201 85.4133 92.1528 83.4978 92.1528 81.8216C92.2181 80.1455 92.2507 78.8585 92.2507 77.9606C91.2061 77.9606 90.0962 77.9606 88.9211 77.9606C87.8112 77.9606 86.6034 77.9905 85.2977 78.0504L85.0039 67.0958C86.3749 67.0958 87.6154 67.0958 88.7252 67.0958C89.9004 67.0958 91.0103 67.1257 92.0548 67.1855C91.9243 65.689 91.9569 64.0728 92.1528 62.3368C92.3486 60.6008 92.8056 58.9247 93.5238 57.3084C94.3072 55.6323 95.3845 54.1358 96.7555 52.8188C98.1265 51.442 99.9219 50.4244 102.142 49.7659C104.884 48.9279 107.854 48.419 111.053 48.2394C114.318 48 117.484 47.9401 120.552 48.0599C120.879 48.9578 121.075 49.9455 121.14 51.023C121.271 52.1005 121.303 53.178 121.238 54.2555C121.173 55.333 121.075 56.3806 120.944 57.3982C120.814 58.4159 120.683 59.3437 120.552 60.1818C119.769 60.1219 118.855 60.1219 117.81 60.1818C116.831 60.2416 115.787 60.3314 114.677 60.4512C113.567 60.5709 112.457 60.7205 111.347 60.9001C110.237 61.0198 109.225 61.1396 108.311 61.2593C106.81 61.4987 105.863 62.2171 105.471 63.4143C105.145 64.5517 105.145 65.8686 105.471 67.3651H120.454C120.324 68.0236 120.291 68.6821 120.357 69.3406C120.422 69.9392 120.422 70.6575 120.357 71.4956C120.357 72.154 120.357 72.6928 120.357 73.1118C120.357 73.471 120.324 73.8601 120.259 74.2791C120.259 74.6981 120.226 75.2369 120.161 75.8954C120.095 76.5538 119.997 77.4518 119.867 78.5891C116.537 78.4095 113.73 78.2599 111.445 78.1402C109.225 78.0204 107.103 77.9307 105.08 77.8708Z" fill="black"/>
<path d="M76.7296 63.1661C78.2398 63.2282 79.6293 63.3213 79.6293 63.4455C79.6293 63.818 79.6293 64.1905 79.6293 64.5629C79.6293 64.9354 79.6293 65.3079 79.6293 65.6804V66.6116C79.6293 73.3162 79.6293 79.9277 79.6293 86.446C79.6293 92.9023 79.6293 99.4517 79.6293 106.094C79.6293 106.901 79.6293 107.708 79.6293 108.515C79.6293 109.322 79.6293 109.788 79.6293 109.912C79.6293 109.912 77.6659 109.881 76.639 109.819C75.6724 109.695 74.7058 109.633 73.7392 109.633C73.0747 109.633 72.4102 109.695 71.7457 109.819C71.1416 109.881 70.5073 109.912 69.8428 109.912C69.4199 109.788 69.1178 109.54 68.9366 109.167C68.8158 108.795 68.7554 108.36 68.7554 107.863C68.7554 107.181 68.8158 106.622 68.9366 106.187C69.0574 105.753 69.1178 105.225 69.1178 104.604C67.668 106.094 65.8254 107.367 63.5902 108.422C61.4155 109.478 60.5225 109.633 58.4081 109.633C56.0521 109.633 52.7767 109.167 51.0852 107.491C49.4541 105.815 48.0949 103.735 47.0075 101.252C45.9201 98.7688 45.1046 96.0684 44.5609 93.1506C44.0776 90.2329 43.8359 87.5324 43.8359 85.0492C43.8359 81.9452 44.2286 79.0896 45.0139 76.4822C45.7993 73.8749 46.8565 71.64 48.1855 69.7776C49.575 67.8532 51.206 66.3633 53.0788 65.3079C54.9515 64.1905 56.9451 63.6007 59.0594 63.5386C60.1468 63.5386 61.1436 63.5697 62.0498 63.6317C63.0163 63.6317 63.8923 63.7869 64.6776 64.0973C65.463 64.3457 66.1577 64.7802 66.7618 65.401C67.3659 65.9597 67.8794 66.7668 68.3023 67.8221C68.2419 66.8288 68.2721 65.9908 68.3929 65.3079C68.5741 64.5629 68.6647 63.818 68.6647 63.073C68.6647 63.0109 68.846 62.9799 69.2084 62.9799C69.6313 62.9178 70.0844 62.9178 70.5677 62.9799C71.051 62.9799 71.5343 62.9799 72.0175 62.9799C72.5008 62.9799 72.8331 62.9799 73.0143 62.9799C74.0413 63.042 75.2797 63.1041 76.7296 63.1661ZM58.7935 75.6066C57.4041 76.7861 55.2838 80.5067 54.9817 82.0587C54.7401 82.8657 54.5804 83.7897 54.5199 84.6588C54.4595 85.4659 54.9817 86.1046 54.9817 86.9116C54.9817 89.7052 55.2673 93.535 56.6567 95.5216C58.1066 97.4461 58.3931 99.1425 60.9303 99.1425C62.4406 99.1425 65.6744 96.7202 66.3993 96.2236C67.1847 95.6648 67.7284 94.9199 68.0304 93.9887C68.3929 92.9954 68.5741 91.8159 68.5741 90.4502C68.6345 89.0223 68.6647 87.4393 68.6647 85.7011C68.6647 83.5283 68.6345 81.8211 68.5741 80.5795C68.5741 79.2758 68.4231 78.2825 68.121 77.5997C67.8794 76.9168 67.4263 76.4822 66.7618 76.296C66.1577 76.1098 65.2039 75.6066 64.6776 75.0231C63.0671 73.7961 60.2434 74.365 58.7935 75.6066Z" fill="black"/>
<path d="M38.5796 91.3267C39.7205 91.3267 40.6601 91.4163 41.3983 91.5954C41.2641 93.1479 41.1299 94.6706 40.9957 96.1634C40.8614 97.6562 40.6937 99.0595 40.4923 100.373C40.291 101.627 40.0225 102.732 39.687 103.687C39.4185 104.583 39.0494 105.24 38.5796 105.658C37.4387 107.091 35.9287 108.106 34.0495 108.703C32.2375 109.3 30.2577 109.658 28.1101 109.778C25.9625 109.957 23.7477 109.957 21.4659 109.778C19.1841 109.658 17.1036 109.599 15.2245 109.599C11.8017 109.061 8.91588 107.748 6.56694 105.658C4.7549 104.225 3.51332 102.433 2.8422 100.284C2.17107 98.1339 1.76839 95.8947 1.63417 93.5659C1.49994 91.1774 1.46639 88.7889 1.5335 86.4004C1.66773 84.0119 1.60061 81.8324 1.33216 79.8619C1.33216 77.7123 1.5335 75.5626 1.93618 73.413C2.00329 72.7561 2.23818 71.8604 2.64086 70.7259C3.04353 69.5914 3.34554 68.7255 3.54688 68.1284C4.01666 67.2327 4.7549 66.4565 5.76159 65.7996C6.83539 65.1428 8.04342 64.6054 9.38567 64.1874C10.795 63.7097 12.2715 63.3813 13.8151 63.2021C15.4258 63.023 17.0365 62.9334 18.6472 62.9334C19.9894 63.0528 21.2646 63.0827 22.4726 63.023C23.7477 62.9036 25.09 62.9036 26.4994 63.023C28.647 63.1424 30.6939 63.5007 32.6402 64.0978C34.5864 64.6949 36.2642 65.5906 37.6736 66.7849C38.6132 67.382 39.3179 68.1881 39.7876 69.2032C40.3245 70.2183 40.7272 71.4126 40.9957 72.786C41.2641 74.1594 41.3983 75.7119 41.3983 77.4436C41.4655 79.1155 41.5326 80.9368 41.5997 82.9072C40.7272 83.0864 39.7205 83.1759 38.5796 83.1759C37.5058 83.1759 36.3649 83.1461 35.1569 83.0864C34.016 83.0267 32.8751 82.9371 31.7341 82.8177C30.6603 82.6983 29.6872 82.5788 28.8147 82.4594C28.4792 80.3695 28.8259 76.7161 27.2152 75.5816C25.6045 74.3873 21.8462 74.3746 19.2288 74.9717C17.8195 75.33 16.9023 74.6262 16.0298 75.5816C14.7211 75.1908 13.9941 78.9065 13.7927 79.8619C13.5243 81.713 12.8958 84.4896 12.8958 86.4004C12.8958 88.3112 13.0301 89.2368 12.8958 91.3267C12.7616 92.7001 12.9552 94.4624 13.4907 95.6363C14.3967 97.6223 16.6897 98.9515 17.9649 99.2501C19.24 99.4889 22.3608 99.1904 23.703 99.0709C25.0453 98.8918 26.1079 97.9209 26.9132 97.4432C27.7074 95.8868 27.3718 95.0587 27.7074 94.1033C28.1101 93.0882 28.4121 92.1925 28.6134 91.4163C29.2845 91.476 30.1906 91.5058 31.3315 91.5058C32.4724 91.4461 33.6804 91.3864 34.9555 91.3267C36.2307 91.267 37.4387 91.267 38.5796 91.3267Z" fill="black"/>
</svg>
