<svg width="398" height="160" viewBox="0 0 398 160" fill="none" xmlns="http://www.w3.org/2000/svg">
<path d="M13.5663 74.2155H1.66138V67.801H33.529V74.2155H21.5743V104.597H13.5663" fill="black"/>
<path d="M46.5123 75.089L41.1211 89.2537H52.104L46.5123 75.089ZM42.7137 67.7499H50.9248L66.6287 104.597H58.0053L54.6187 95.8226H38.6093L35.3219 104.597H27.1123" fill="black"/>
<path d="M86.432 74.3191H76.9378V83.6091H86.432C88.9979 83.6091 90.7936 83.2469 91.8221 82.5291C92.7965 81.8628 93.3079 80.6312 93.3079 78.9363C93.3079 77.247 92.8462 76.0666 91.8221 75.3989C90.8986 74.6799 89.1 74.3191 86.432 74.3191ZM69.1899 67.7499H88.2804C92.6943 67.7499 95.9774 68.6251 98.0315 70.4194C100.081 72.2152 101.111 74.9869 101.161 78.8354C101.161 81.6571 100.548 83.967 99.2092 85.7631C97.9791 87.5091 96.1322 88.691 93.7199 89.2022L102.906 104.597H94.1802L86.0756 90.1257H76.9378V104.597H69.1899" fill="black"/>
<path d="M121.07 89.2537V82.7351H139.391V104.597H122.709C119.685 104.597 117.322 104.338 115.63 103.83C113.988 103.367 112.447 102.497 111.008 101.363C109.162 99.8771 107.727 97.9251 106.75 95.5128C105.826 93.1036 105.364 90.2278 105.364 86.8414C105.364 80.3245 106.75 75.5522 109.574 72.4212C112.447 69.2899 116.757 67.7499 122.709 67.7499H139.391V74.1131H122.709C119.685 74.1131 117.479 75.089 116.041 77.041C114.653 78.989 113.988 82.1229 113.988 86.48C113.988 90.4865 114.653 93.4103 116.041 95.2087C117.425 97.0528 119.634 97.9251 122.709 97.9251H131.435V89.2537" fill="black"/>
<path d="M161.763 73.3418C158.478 73.3418 155.962 74.3717 154.318 76.4728C152.679 78.5272 151.858 81.6571 151.858 85.8652C151.858 90.3785 152.625 93.7202 154.22 95.8764C155.86 97.9792 158.323 99.0048 161.763 99.0048C165.15 99.0048 167.61 97.9792 169.254 95.8764C170.896 93.7711 171.713 90.5377 171.713 86.1704C171.713 81.8107 170.896 78.577 169.254 76.4728C167.664 74.4241 165.199 73.3956 161.763 73.3418ZM143.387 85.8154C143.387 79.5005 144.876 74.7808 147.906 71.6495C150.932 68.5695 155.552 67.085 161.763 67.0323C168.023 67.0323 172.641 68.5695 175.617 71.7022C178.646 74.8306 180.132 79.6538 180.132 86.1704C180.132 92.6916 178.646 97.5163 175.617 100.647C172.641 103.779 168.023 105.37 161.763 105.37C155.448 105.37 150.828 103.779 147.853 100.647C144.876 97.4625 143.387 92.5351 143.387 85.8154Z" fill="black"/>
<path d="M268.389 98.0787C270.133 98.0787 271.414 97.7718 272.237 97.0528C273.058 96.3312 273.467 95.257 273.467 93.7711C273.467 92.2855 273.058 91.1542 272.237 90.4865C271.414 89.7678 270.133 89.4067 268.389 89.4067H256.942V98.0787H268.389ZM256.942 74.3718V82.8904H268.282C270.027 82.8904 271.311 82.5847 272.132 81.8628C272.956 81.1453 273.311 80.0687 273.362 78.6294C273.362 77.1903 272.956 76.1164 272.132 75.3989C271.311 74.7311 270.027 74.4241 268.282 74.3718H256.942ZM269.465 104.597H249.191V67.7499H268.133C270.49 67.7499 272.443 67.9061 273.932 68.1619C275.421 68.4191 276.651 68.8311 277.57 69.4433C278.908 70.317 279.931 71.3912 280.65 72.7264C281.369 74.1131 281.728 75.6546 281.728 77.3465C281.728 79.401 281.321 81.1453 280.392 82.5847C279.525 84.0211 278.14 85.1975 276.242 86.1704C278.14 86.9918 279.573 88.0741 280.444 89.4579C281.369 90.7937 281.782 92.4868 281.835 94.5384C281.835 97.9792 280.804 100.494 278.805 102.184C276.803 103.779 273.722 104.597 269.465 104.597Z" fill="black"/>
<path d="M302.308 75.089L296.917 89.2537H307.897L302.308 75.089ZM298.508 67.7499H306.722L322.421 104.597H313.797L310.411 95.8226H294.4L291.116 104.597H282.904" fill="black"/>
<path d="M324.984 67.7499H334.786L349.872 94.2314L349.514 67.7499H357.413V104.597H348.437L332.578 76.7285L332.939 104.597H324.984" fill="black"/>
<path d="M364.905 67.7499H372.656V85.4558L387.174 67.7499H396.467L381.687 85.7631L396.618 104.597H386.717L372.656 86.2754V104.597H364.905" fill="black"/>
<path d="M204.986 59.1448C204.855 55.2308 207.919 51.9602 211.828 51.8295C215.741 51.7018 219.015 54.7691 219.145 58.6758C219.276 62.5897 216.207 65.863 212.302 65.9896C208.388 66.1188 205.116 63.0515 204.986 59.1448Z" fill="black"/>
<path d="M208.726 81.9698C206.979 83.7225 204.416 83.8037 202.808 82.1953L190.741 70.1281C189.165 68.5197 189.235 65.9299 190.961 64.2022C192.689 62.4762 195.311 62.3811 196.885 63.9822L208.952 76.0494C210.557 77.6535 210.457 80.2348 208.726 81.9698Z" fill="black"/>
<path d="M215.409 81.9611C217.156 83.7144 219.719 83.7923 221.329 82.1839L233.394 70.1167C234.971 68.5142 234.9 65.9214 233.174 64.1937C231.445 62.4678 228.823 62.3712 227.248 63.9749L215.182 76.041C213.576 77.6476 213.679 80.2249 215.409 81.9611Z" fill="black"/>
<path d="M190.562 106.819C192.309 108.572 194.901 108.623 196.543 106.981L208.872 94.6519C210.483 93.0097 210.442 90.3899 208.715 88.6622C206.99 86.9377 204.339 86.8693 202.731 88.506L190.4 100.835C188.759 102.477 188.833 105.083 190.562 106.819Z" fill="black"/>
<path d="M233.58 106.819C231.833 108.572 229.239 108.623 227.598 106.981L215.267 94.6519C213.657 93.0097 213.698 90.3899 215.425 88.6622C217.153 86.9377 219.804 86.8693 221.413 88.506L233.741 100.835C235.38 102.477 235.309 105.083 233.58 106.819Z" fill="black"/>
</svg>
